<mxfile host="app.diagrams.net" agent="Mozilla/5.0 (Windows NT 10.0; Win64; x64) AppleWebKit/537.36 (KHTML, like Gecko) Chrome/130.0.0.0 Safari/537.36" version="24.8.3">
  <diagram name="Page-1" id="74e2e168-ea6b-b213-b513-2b3c1d86103e">
    <mxGraphModel dx="5260" dy="1871" grid="0" gridSize="10" guides="1" tooltips="1" connect="1" arrows="1" fold="1" page="1" pageScale="1" pageWidth="1100" pageHeight="850" background="#FFFFFF" math="0" shadow="0">
      <root>
        <mxCell id="0" />
        <mxCell id="1" parent="0" />
        <mxCell id="77e6c97f196da883-1" value="&lt;font style=&quot;font-size: 24px;&quot;&gt;Testes no Ciclo de Vida de Desenvolvimento de Software (SDLC)&lt;/font&gt;" style="swimlane;html=1;childLayout=stackLayout;startSize=20;rounded=0;shadow=0;labelBackgroundColor=none;strokeWidth=1;fontFamily=Verdana;fontSize=8;align=center;fillColor=#e1d5e7;strokeColor=#9673a6;" parent="1" vertex="1">
          <mxGeometry x="70" y="5" width="2975" height="785" as="geometry" />
        </mxCell>
        <mxCell id="77e6c97f196da883-2" value="&lt;font style=&quot;font-size: 14px;&quot;&gt;Refinamento / Planning&lt;/font&gt;" style="swimlane;html=1;startSize=20;fillColor=#3399FF;strokeColor=#000000;fontColor=#ffffff;fillStyle=solid;gradientColor=none;" parent="77e6c97f196da883-1" vertex="1">
          <mxGeometry y="20" width="970" height="765" as="geometry">
            <mxRectangle y="20" width="32" height="730" as="alternateBounds" />
          </mxGeometry>
        </mxCell>
        <mxCell id="rSFsk-fasPT_X7yhRa_L-7" value="" style="edgeStyle=orthogonalEdgeStyle;rounded=0;orthogonalLoop=1;jettySize=auto;html=1;fillColor=#60a917;strokeColor=#2D7600;flowAnimation=1;" parent="77e6c97f196da883-2" source="rSFsk-fasPT_X7yhRa_L-2" edge="1">
          <mxGeometry relative="1" as="geometry">
            <mxPoint x="100" y="290" as="targetPoint" />
          </mxGeometry>
        </mxCell>
        <mxCell id="rSFsk-fasPT_X7yhRa_L-8" value="&lt;div style=&quot;font-size: 12px; background-color: rgb(251, 251, 251);&quot;&gt;&lt;span style=&quot;font-size: 18px;&quot;&gt;Requisitos do produto&lt;/span&gt;&lt;/div&gt;&lt;div style=&quot;font-size: 12px; background-color: rgb(251, 251, 251);&quot;&gt;&lt;span style=&quot;font-size: 18px;&quot;&gt;com os stakeholders&amp;nbsp;&lt;/span&gt;&lt;/div&gt;" style="edgeLabel;html=1;align=center;verticalAlign=middle;resizable=0;points=[];" parent="rSFsk-fasPT_X7yhRa_L-7" vertex="1" connectable="0">
          <mxGeometry x="0.6082" y="-2" relative="1" as="geometry">
            <mxPoint y="-53" as="offset" />
          </mxGeometry>
        </mxCell>
        <mxCell id="rSFsk-fasPT_X7yhRa_L-2" value="" style="sketch=0;html=1;aspect=fixed;strokeColor=#23445d;shadow=0;fillColor=#007FFF;verticalAlign=top;labelPosition=center;verticalLabelPosition=bottom;shape=mxgraph.gcp2.view_list;" parent="77e6c97f196da883-2" vertex="1">
          <mxGeometry x="75.7" y="80" width="48.6" height="60" as="geometry" />
        </mxCell>
        <mxCell id="rSFsk-fasPT_X7yhRa_L-5" value="" style="sketch=0;pointerEvents=1;shadow=0;dashed=0;html=1;strokeColor=#23445d;fillColor=#007FFF;labelPosition=center;verticalLabelPosition=bottom;verticalAlign=top;outlineConnect=0;align=center;shape=mxgraph.office.concepts.book_journal;" parent="77e6c97f196da883-2" vertex="1">
          <mxGeometry x="77.30000000000001" y="302" width="41" height="49" as="geometry" />
        </mxCell>
        <mxCell id="rSFsk-fasPT_X7yhRa_L-6" value="&lt;span style=&quot;font-size: 18px;&quot;&gt;Backlog&amp;nbsp;&lt;/span&gt;" style="text;html=1;align=center;verticalAlign=middle;resizable=0;points=[];autosize=1;strokeColor=none;fillColor=none;" parent="77e6c97f196da883-2" vertex="1">
          <mxGeometry x="58.8" y="356" width="90" height="40" as="geometry" />
        </mxCell>
        <mxCell id="rSFsk-fasPT_X7yhRa_L-19" style="edgeStyle=orthogonalEdgeStyle;rounded=0;orthogonalLoop=1;jettySize=auto;html=1;fillColor=#60a917;strokeColor=#2D7600;flowAnimation=1;" parent="77e6c97f196da883-2" source="rSFsk-fasPT_X7yhRa_L-9" edge="1">
          <mxGeometry relative="1" as="geometry">
            <mxPoint x="470" y="326" as="targetPoint" />
          </mxGeometry>
        </mxCell>
        <mxCell id="rSFsk-fasPT_X7yhRa_L-20" value="&lt;font style=&quot;font-size: 18px;&quot;&gt;Sim&lt;/font&gt;" style="edgeLabel;html=1;align=center;verticalAlign=middle;resizable=0;points=[];" parent="rSFsk-fasPT_X7yhRa_L-19" vertex="1" connectable="0">
          <mxGeometry x="-0.057" y="-1" relative="1" as="geometry">
            <mxPoint as="offset" />
          </mxGeometry>
        </mxCell>
        <mxCell id="rSFsk-fasPT_X7yhRa_L-9" value="&lt;div&gt;&lt;font style=&quot;font-size: 18px;&quot;&gt;Requisito&lt;/font&gt;&lt;/div&gt;&lt;div&gt;&lt;font size=&quot;3&quot;&gt;Aceito?&lt;/font&gt;&lt;/div&gt;" style="rhombus;whiteSpace=wrap;html=1;fillColor=#fad7ac;strokeColor=#b46504;" parent="77e6c97f196da883-2" vertex="1">
          <mxGeometry x="225" y="270.5" width="139" height="110" as="geometry" />
        </mxCell>
        <mxCell id="rSFsk-fasPT_X7yhRa_L-10" style="edgeStyle=orthogonalEdgeStyle;rounded=0;orthogonalLoop=1;jettySize=auto;html=1;fillColor=#60a917;strokeColor=#2D7600;flowAnimation=1;" parent="77e6c97f196da883-2" source="rSFsk-fasPT_X7yhRa_L-5" edge="1">
          <mxGeometry relative="1" as="geometry">
            <mxPoint x="220" y="326" as="targetPoint" />
          </mxGeometry>
        </mxCell>
        <mxCell id="rSFsk-fasPT_X7yhRa_L-15" style="edgeStyle=orthogonalEdgeStyle;rounded=0;orthogonalLoop=1;jettySize=auto;html=1;exitX=0.5;exitY=0;exitDx=0;exitDy=0;strokeColor=#ff0800;flowAnimation=1;" parent="77e6c97f196da883-2" source="rSFsk-fasPT_X7yhRa_L-9" edge="1">
          <mxGeometry relative="1" as="geometry">
            <mxPoint x="130" y="100" as="targetPoint" />
            <Array as="points">
              <mxPoint x="295" y="100" />
            </Array>
          </mxGeometry>
        </mxCell>
        <mxCell id="rSFsk-fasPT_X7yhRa_L-16" value="&lt;font style=&quot;font-size: 18px;&quot;&gt;NÃ£o&lt;/font&gt;" style="edgeLabel;html=1;align=center;verticalAlign=middle;resizable=0;points=[];" parent="rSFsk-fasPT_X7yhRa_L-15" vertex="1" connectable="0">
          <mxGeometry x="-0.2786" y="-3" relative="1" as="geometry">
            <mxPoint as="offset" />
          </mxGeometry>
        </mxCell>
        <mxCell id="rSFsk-fasPT_X7yhRa_L-18" value="" style="sketch=0;pointerEvents=1;shadow=0;dashed=0;html=1;strokeColor=#23445d;fillColor=#007FFF;labelPosition=center;verticalLabelPosition=bottom;verticalAlign=top;outlineConnect=0;align=center;shape=mxgraph.office.sites.site_team;" parent="77e6c97f196da883-2" vertex="1">
          <mxGeometry x="480" y="291" width="84.49" height="69" as="geometry" />
        </mxCell>
        <mxCell id="rSFsk-fasPT_X7yhRa_L-28" style="edgeStyle=orthogonalEdgeStyle;rounded=0;orthogonalLoop=1;jettySize=auto;html=1;fillColor=#60a917;strokeColor=#2D7600;flowAnimation=1;" parent="77e6c97f196da883-2" edge="1">
          <mxGeometry relative="1" as="geometry">
            <mxPoint x="745" y="550" as="targetPoint" />
            <mxPoint x="507.5499999999997" y="550" as="sourcePoint" />
          </mxGeometry>
        </mxCell>
        <mxCell id="rSFsk-fasPT_X7yhRa_L-22" value="" style="sketch=0;html=1;aspect=fixed;strokeColor=#23445d;shadow=0;fillColor=#007FFF;verticalAlign=top;labelPosition=center;verticalLabelPosition=bottom;shape=mxgraph.gcp2.view_list;" parent="77e6c97f196da883-2" vertex="1">
          <mxGeometry x="493.95000000000005" y="520" width="48.6" height="60" as="geometry" />
        </mxCell>
        <mxCell id="rSFsk-fasPT_X7yhRa_L-23" style="edgeStyle=orthogonalEdgeStyle;rounded=0;orthogonalLoop=1;jettySize=auto;html=1;fillColor=#60a917;strokeColor=#2D7600;flowAnimation=1;" parent="77e6c97f196da883-2" source="rSFsk-fasPT_X7yhRa_L-18" edge="1">
          <mxGeometry relative="1" as="geometry">
            <mxPoint x="520" y="510" as="targetPoint" />
          </mxGeometry>
        </mxCell>
        <mxCell id="rSFsk-fasPT_X7yhRa_L-24" value="&lt;div&gt;&lt;font style=&quot;font-size: 18px;&quot;&gt;Refinamento&amp;nbsp;&lt;/font&gt;&lt;/div&gt;&lt;div&gt;&lt;font size=&quot;3&quot;&gt;de tarefas&amp;nbsp;&lt;/font&gt;&lt;/div&gt;&lt;div&gt;&lt;font size=&quot;3&quot;&gt;com o Time&amp;nbsp;&lt;/font&gt;&lt;/div&gt;" style="edgeLabel;html=1;align=center;verticalAlign=middle;resizable=0;points=[];" parent="rSFsk-fasPT_X7yhRa_L-23" vertex="1" connectable="0">
          <mxGeometry x="-0.1478" y="1" relative="1" as="geometry">
            <mxPoint as="offset" />
          </mxGeometry>
        </mxCell>
        <mxCell id="rSFsk-fasPT_X7yhRa_L-49" style="edgeStyle=orthogonalEdgeStyle;rounded=0;orthogonalLoop=1;jettySize=auto;html=1;fillColor=#60a917;strokeColor=#2D7600;flowAnimation=1;" parent="77e6c97f196da883-2" source="rSFsk-fasPT_X7yhRa_L-26" edge="1">
          <mxGeometry relative="1" as="geometry">
            <mxPoint x="775.5" y="390" as="targetPoint" />
          </mxGeometry>
        </mxCell>
        <mxCell id="rSFsk-fasPT_X7yhRa_L-26" value="" style="sketch=0;pointerEvents=1;shadow=0;dashed=0;html=1;strokeColor=#23445d;fillColor=#007FFF;labelPosition=center;verticalLabelPosition=bottom;verticalAlign=top;outlineConnect=0;align=center;shape=mxgraph.office.concepts.book_journal;" parent="77e6c97f196da883-2" vertex="1">
          <mxGeometry x="755" y="526" width="41" height="49" as="geometry" />
        </mxCell>
        <mxCell id="rSFsk-fasPT_X7yhRa_L-50" style="edgeStyle=orthogonalEdgeStyle;rounded=0;orthogonalLoop=1;jettySize=auto;html=1;fillColor=#f8cecc;strokeColor=#ff0800;flowAnimation=1;" parent="77e6c97f196da883-2" source="rSFsk-fasPT_X7yhRa_L-47" edge="1">
          <mxGeometry relative="1" as="geometry">
            <mxPoint x="775.5" y="190" as="targetPoint" />
          </mxGeometry>
        </mxCell>
        <mxCell id="rSFsk-fasPT_X7yhRa_L-53" value="&lt;font style=&quot;font-size: 18px;&quot;&gt;NÃ£o&lt;/font&gt;" style="edgeLabel;html=1;align=center;verticalAlign=middle;resizable=0;points=[];" parent="rSFsk-fasPT_X7yhRa_L-50" vertex="1" connectable="0">
          <mxGeometry x="-0.0593" y="3" relative="1" as="geometry">
            <mxPoint as="offset" />
          </mxGeometry>
        </mxCell>
        <mxCell id="rSFsk-fasPT_X7yhRa_L-54" style="edgeStyle=orthogonalEdgeStyle;rounded=0;orthogonalLoop=1;jettySize=auto;html=1;fillColor=#60a917;strokeColor=#2D7600;flowAnimation=1;" parent="77e6c97f196da883-2" edge="1">
          <mxGeometry relative="1" as="geometry">
            <mxPoint x="1060" y="326" as="targetPoint" />
            <mxPoint x="796.9097402597404" y="325.57142857142867" as="sourcePoint" />
          </mxGeometry>
        </mxCell>
        <mxCell id="rSFsk-fasPT_X7yhRa_L-47" value="&lt;div&gt;&lt;font style=&quot;font-size: 18px;&quot;&gt;Requisito&lt;/font&gt;&lt;/div&gt;&lt;div&gt;&lt;font size=&quot;3&quot;&gt;Detalhados?&lt;/font&gt;&lt;/div&gt;" style="rhombus;whiteSpace=wrap;html=1;fillColor=#fad7ac;strokeColor=#b46504;" parent="77e6c97f196da883-2" vertex="1">
          <mxGeometry x="706" y="270.5" width="139" height="110" as="geometry" />
        </mxCell>
        <mxCell id="rSFsk-fasPT_X7yhRa_L-48" value="" style="verticalLabelPosition=bottom;html=1;verticalAlign=top;align=center;strokeColor=#23445d;fillColor=#007FFF;shape=mxgraph.azure.file_2;pointerEvents=1;" parent="77e6c97f196da883-2" vertex="1">
          <mxGeometry x="751.75" y="110" width="53.25" height="70" as="geometry" />
        </mxCell>
        <mxCell id="rSFsk-fasPT_X7yhRa_L-51" value="&lt;span style=&quot;font-size: 18px;&quot;&gt;PriorizaÃ§Ã£o e alinhamento com time e PO&lt;/span&gt;" style="text;html=1;align=center;verticalAlign=middle;resizable=0;points=[];autosize=1;strokeColor=none;fillColor=none;" parent="77e6c97f196da883-2" vertex="1">
          <mxGeometry x="596.38" y="66" width="360" height="40" as="geometry" />
        </mxCell>
        <mxCell id="77e6c97f196da883-3" value="&lt;font style=&quot;font-size: 14px;&quot;&gt;Desenvolvimento&lt;/font&gt;" style="swimlane;html=1;startSize=20;fillColor=#12570A;strokeColor=#000000;fontColor=#ffffff;fillStyle=solid;" parent="77e6c97f196da883-1" vertex="1">
          <mxGeometry x="970" y="20" width="210" height="765" as="geometry" />
        </mxCell>
        <mxCell id="rSFsk-fasPT_X7yhRa_L-61" style="edgeStyle=orthogonalEdgeStyle;rounded=0;orthogonalLoop=1;jettySize=auto;html=1;fillColor=#60a917;strokeColor=#2D7600;flowAnimation=1;" parent="77e6c97f196da883-3" source="rSFsk-fasPT_X7yhRa_L-52" edge="1">
          <mxGeometry relative="1" as="geometry">
            <mxPoint x="300.00000000000045" y="326.5" as="targetPoint" />
          </mxGeometry>
        </mxCell>
        <mxCell id="rSFsk-fasPT_X7yhRa_L-52" value="" style="verticalLabelPosition=bottom;html=1;verticalAlign=top;align=center;strokeColor=none;fillColor=#00BEF2;shape=mxgraph.azure.code_file;pointerEvents=1;" parent="77e6c97f196da883-3" vertex="1">
          <mxGeometry x="102" y="289.5" width="58.25" height="74" as="geometry" />
        </mxCell>
        <mxCell id="rSFsk-fasPT_X7yhRa_L-57" value="&lt;span style=&quot;font-size: 18px;&quot;&gt;CodificaÃ§Ã£o&lt;/span&gt;" style="edgeLabel;html=1;align=center;verticalAlign=middle;resizable=0;points=[];" parent="77e6c97f196da883-3" vertex="1" connectable="0">
          <mxGeometry x="104.99529411764684" y="273.995882352941" as="geometry">
            <mxPoint x="25" y="1" as="offset" />
          </mxGeometry>
        </mxCell>
        <mxCell id="77e6c97f196da883-4" value="&lt;font style=&quot;font-size: 14px;&quot;&gt;Code Review&lt;/font&gt;" style="swimlane;html=1;startSize=20;fillColor=#CF8FF0;strokeColor=#500075;fillStyle=solid;" parent="77e6c97f196da883-1" vertex="1">
          <mxGeometry x="1180" y="20" width="270" height="765" as="geometry" />
        </mxCell>
        <mxCell id="rSFsk-fasPT_X7yhRa_L-65" style="edgeStyle=orthogonalEdgeStyle;rounded=0;orthogonalLoop=1;jettySize=auto;html=1;fillColor=#f8cecc;strokeColor=#ff0800;flowAnimation=1;" parent="77e6c97f196da883-4" source="rSFsk-fasPT_X7yhRa_L-55" edge="1">
          <mxGeometry relative="1" as="geometry">
            <mxPoint x="-80" y="380" as="targetPoint" />
          </mxGeometry>
        </mxCell>
        <mxCell id="rSFsk-fasPT_X7yhRa_L-66" value="&lt;font style=&quot;font-size: 18px;&quot;&gt;NÃ£o&lt;/font&gt;" style="edgeLabel;html=1;align=center;verticalAlign=middle;resizable=0;points=[];" parent="rSFsk-fasPT_X7yhRa_L-65" vertex="1" connectable="0">
          <mxGeometry x="-0.2693" y="-2" relative="1" as="geometry">
            <mxPoint x="79" as="offset" />
          </mxGeometry>
        </mxCell>
        <mxCell id="rSFsk-fasPT_X7yhRa_L-72" style="edgeStyle=orthogonalEdgeStyle;rounded=0;orthogonalLoop=1;jettySize=auto;html=1;exitX=1;exitY=0.5;exitDx=0;exitDy=0;fillColor=#60a917;strokeColor=#2D7600;flowAnimation=1;" parent="77e6c97f196da883-4" source="rSFsk-fasPT_X7yhRa_L-55" edge="1">
          <mxGeometry relative="1" as="geometry">
            <mxPoint x="350" y="576.0588235294117" as="targetPoint" />
          </mxGeometry>
        </mxCell>
        <mxCell id="rSFsk-fasPT_X7yhRa_L-73" value="&lt;font style=&quot;font-size: 18px;&quot;&gt;Sim&lt;/font&gt;" style="edgeLabel;html=1;align=center;verticalAlign=middle;resizable=0;points=[];" parent="rSFsk-fasPT_X7yhRa_L-72" vertex="1" connectable="0">
          <mxGeometry x="0.1706" y="1" relative="1" as="geometry">
            <mxPoint as="offset" />
          </mxGeometry>
        </mxCell>
        <mxCell id="rSFsk-fasPT_X7yhRa_L-55" value="&lt;span style=&quot;font-size: 18px;&quot;&gt;Requisitos atendidos?&lt;/span&gt;" style="rhombus;whiteSpace=wrap;html=1;fillColor=#fad7ac;strokeColor=#b46504;" parent="77e6c97f196da883-4" vertex="1">
          <mxGeometry x="72.5" y="521" width="139" height="110" as="geometry" />
        </mxCell>
        <mxCell id="rSFsk-fasPT_X7yhRa_L-67" style="edgeStyle=orthogonalEdgeStyle;rounded=0;orthogonalLoop=1;jettySize=auto;html=1;fillColor=#60a917;strokeColor=#2D7600;flowAnimation=1;" parent="77e6c97f196da883-4" source="rSFsk-fasPT_X7yhRa_L-59" edge="1">
          <mxGeometry relative="1" as="geometry">
            <mxPoint x="141.5" y="520" as="targetPoint" />
          </mxGeometry>
        </mxCell>
        <mxCell id="rSFsk-fasPT_X7yhRa_L-59" value="" style="html=1;verticalLabelPosition=bottom;align=center;labelBackgroundColor=#ffffff;verticalAlign=top;strokeWidth=2;strokeColor=#0080F0;shadow=0;dashed=0;shape=mxgraph.ios7.icons.eye;" parent="77e6c97f196da883-4" vertex="1">
          <mxGeometry x="96.5" y="302" width="90" height="50" as="geometry" />
        </mxCell>
        <mxCell id="rSFsk-fasPT_X7yhRa_L-60" value="&lt;span style=&quot;font-size: 18px;&quot;&gt;Code Review&lt;/span&gt;" style="text;html=1;align=center;verticalAlign=middle;resizable=0;points=[];autosize=1;strokeColor=none;fillColor=none;" parent="77e6c97f196da883-4" vertex="1">
          <mxGeometry x="80" y="250" width="130" height="40" as="geometry" />
        </mxCell>
        <mxCell id="77e6c97f196da883-5" value="&lt;font style=&quot;font-size: 14px;&quot;&gt;Teste (Sprint)&lt;/font&gt;" style="swimlane;html=1;startSize=20;strokeColor=#000000;fillColor=#F25B25;" parent="77e6c97f196da883-1" vertex="1">
          <mxGeometry x="1450" y="20" width="280" height="765" as="geometry" />
        </mxCell>
        <mxCell id="rSFsk-fasPT_X7yhRa_L-76" style="edgeStyle=orthogonalEdgeStyle;rounded=0;orthogonalLoop=1;jettySize=auto;html=1;fillColor=#60a917;strokeColor=#2D7600;flowAnimation=1;" parent="77e6c97f196da883-5" source="rSFsk-fasPT_X7yhRa_L-68" edge="1">
          <mxGeometry relative="1" as="geometry">
            <mxPoint x="113.90999999999985" y="390" as="targetPoint" />
          </mxGeometry>
        </mxCell>
        <mxCell id="rSFsk-fasPT_X7yhRa_L-78" style="edgeStyle=orthogonalEdgeStyle;rounded=0;orthogonalLoop=1;jettySize=auto;html=1;fillColor=#647687;strokeColor=#314354;flowAnimation=1;" parent="77e6c97f196da883-5" source="rSFsk-fasPT_X7yhRa_L-68" edge="1">
          <mxGeometry relative="1" as="geometry">
            <mxPoint x="210" y="450" as="targetPoint" />
          </mxGeometry>
        </mxCell>
        <mxCell id="rSFsk-fasPT_X7yhRa_L-79" value="&lt;font style=&quot;font-size: 18px;&quot;&gt;EvidÃªncias&amp;nbsp;&lt;br&gt;dos testes&lt;/font&gt;" style="edgeLabel;html=1;align=center;verticalAlign=middle;resizable=0;points=[];" parent="rSFsk-fasPT_X7yhRa_L-78" vertex="1" connectable="0">
          <mxGeometry x="0.3197" y="-1" relative="1" as="geometry">
            <mxPoint as="offset" />
          </mxGeometry>
        </mxCell>
        <mxCell id="rSFsk-fasPT_X7yhRa_L-68" value="" style="image;aspect=fixed;html=1;points=[];align=center;fontSize=12;image=img/lib/azure2/general/Load_Test.svg;" parent="77e6c97f196da883-5" vertex="1">
          <mxGeometry x="83" y="524" width="61.82" height="60" as="geometry" />
        </mxCell>
        <mxCell id="rSFsk-fasPT_X7yhRa_L-81" style="edgeStyle=orthogonalEdgeStyle;rounded=0;orthogonalLoop=1;jettySize=auto;html=1;fillColor=#f8cecc;strokeColor=#db0700;flowAnimation=1;" parent="77e6c97f196da883-5" source="rSFsk-fasPT_X7yhRa_L-74" edge="1">
          <mxGeometry relative="1" as="geometry">
            <mxPoint x="113.9099999999994" y="160" as="targetPoint" />
          </mxGeometry>
        </mxCell>
        <mxCell id="rSFsk-fasPT_X7yhRa_L-82" value="&lt;font style=&quot;font-size: 18px;&quot;&gt;NÃ£o&lt;/font&gt;" style="edgeLabel;html=1;align=center;verticalAlign=middle;resizable=0;points=[];" parent="rSFsk-fasPT_X7yhRa_L-81" vertex="1" connectable="0">
          <mxGeometry x="-0.1211" relative="1" as="geometry">
            <mxPoint as="offset" />
          </mxGeometry>
        </mxCell>
        <mxCell id="rSFsk-fasPT_X7yhRa_L-74" value="&lt;span style=&quot;font-size: 18px;&quot;&gt;Requisitos atendidos?&lt;/span&gt;" style="rhombus;whiteSpace=wrap;html=1;fillColor=#fad7ac;strokeColor=#b46504;" parent="77e6c97f196da883-5" vertex="1">
          <mxGeometry x="44.41" y="272" width="139" height="110" as="geometry" />
        </mxCell>
        <mxCell id="rSFsk-fasPT_X7yhRa_L-77" value="Log" style="html=1;whiteSpace=wrap;strokeColor=none;fillColor=#0079D6;labelPosition=center;verticalLabelPosition=middle;verticalAlign=top;align=center;fontSize=12;outlineConnect=0;spacingTop=-6;fontColor=#FFFFFF;sketch=0;shape=mxgraph.sitemap.log;" parent="77e6c97f196da883-5" vertex="1">
          <mxGeometry x="172" y="382" width="80" height="60" as="geometry" />
        </mxCell>
        <mxCell id="rSFsk-fasPT_X7yhRa_L-84" style="edgeStyle=orthogonalEdgeStyle;rounded=0;orthogonalLoop=1;jettySize=auto;html=1;fillColor=#f8cecc;strokeColor=#db0700;flowAnimation=1;" parent="77e6c97f196da883-5" edge="1">
          <mxGeometry relative="1" as="geometry">
            <mxPoint x="-350" y="250" as="targetPoint" />
            <Array as="points">
              <mxPoint x="113" y="50" />
              <mxPoint x="-350" y="50" />
            </Array>
            <mxPoint x="113.33333333333348" y="66" as="sourcePoint" />
          </mxGeometry>
        </mxCell>
        <mxCell id="rSFsk-fasPT_X7yhRa_L-83" value="&lt;span style=&quot;font-size: 18px;&quot;&gt;Story Bug&lt;/span&gt;" style="text;html=1;align=center;verticalAlign=middle;resizable=0;points=[];autosize=1;strokeColor=none;fillColor=none;" parent="77e6c97f196da883-5" vertex="1">
          <mxGeometry x="63.90999999999994" y="130" width="100" height="40" as="geometry" />
        </mxCell>
        <mxCell id="rSFsk-fasPT_X7yhRa_L-92" value="&lt;div&gt;&lt;span style=&quot;font-size: 18px;&quot;&gt;Testando a&lt;/span&gt;&lt;/div&gt;&lt;div&gt;&lt;span style=&quot;font-size: 18px;&quot;&gt;AplicaÃ§Ã£o&lt;/span&gt;&lt;/div&gt;" style="edgeLabel;html=1;align=center;verticalAlign=middle;resizable=0;points=[];" parent="77e6c97f196da883-5" vertex="1" connectable="0">
          <mxGeometry x="113.9119189684211" y="620.0018295892222" as="geometry">
            <mxPoint x="-5" y="-5" as="offset" />
          </mxGeometry>
        </mxCell>
        <mxCell id="77e6c97f196da883-6" value="&lt;font style=&quot;font-size: 14px;&quot;&gt;HomologaÃ§Ã£o (Release)&lt;/font&gt;" style="swimlane;html=1;startSize=20;fillColor=#EB7500;" parent="77e6c97f196da883-1" vertex="1">
          <mxGeometry x="1730" y="20" width="515" height="765" as="geometry" />
        </mxCell>
        <mxCell id="rSFsk-fasPT_X7yhRa_L-99" style="edgeStyle=orthogonalEdgeStyle;rounded=0;orthogonalLoop=1;jettySize=auto;html=1;fillColor=#fad9d5;strokeColor=#DB0700;flowAnimation=1;" parent="77e6c97f196da883-6" edge="1">
          <mxGeometry relative="1" as="geometry">
            <mxPoint x="-630" y="250" as="targetPoint" />
            <Array as="points">
              <mxPoint x="115" y="50" />
              <mxPoint x="-630" y="50" />
            </Array>
            <mxPoint x="115.24999999999955" y="66" as="sourcePoint" />
          </mxGeometry>
        </mxCell>
        <mxCell id="rSFsk-fasPT_X7yhRa_L-86" value="&lt;span style=&quot;font-size: 18px;&quot;&gt;Story Bug&lt;/span&gt;" style="text;html=1;align=center;verticalAlign=middle;resizable=0;points=[];autosize=1;strokeColor=none;fillColor=none;" parent="77e6c97f196da883-6" vertex="1">
          <mxGeometry x="65.81999999999977" y="130" width="100" height="40" as="geometry" />
        </mxCell>
        <mxCell id="rSFsk-fasPT_X7yhRa_L-106" style="edgeStyle=orthogonalEdgeStyle;rounded=0;orthogonalLoop=1;jettySize=auto;html=1;fillColor=#60a917;strokeColor=#2D7600;flowAnimation=1;" parent="77e6c97f196da883-6" source="rSFsk-fasPT_X7yhRa_L-88" target="rSFsk-fasPT_X7yhRa_L-94" edge="1">
          <mxGeometry relative="1" as="geometry" />
        </mxCell>
        <mxCell id="rSFsk-fasPT_X7yhRa_L-88" value="" style="image;aspect=fixed;html=1;points=[];align=center;fontSize=12;image=img/lib/azure2/general/Load_Test.svg;" parent="77e6c97f196da883-6" vertex="1">
          <mxGeometry x="82.91000000000008" y="569" width="61.82" height="60" as="geometry" />
        </mxCell>
        <mxCell id="rSFsk-fasPT_X7yhRa_L-93" value="&lt;span style=&quot;font-size: 18px;&quot;&gt;Testes de RegressÃ£o&lt;/span&gt;" style="edgeLabel;html=1;align=center;verticalAlign=middle;resizable=0;points=[];" parent="77e6c97f196da883-6" vertex="1" connectable="0">
          <mxGeometry x="115.82191896842119" y="649.0018295892222" as="geometry" />
        </mxCell>
        <mxCell id="rSFsk-fasPT_X7yhRa_L-104" style="edgeStyle=orthogonalEdgeStyle;rounded=0;orthogonalLoop=1;jettySize=auto;html=1;entryX=0.5;entryY=1;entryDx=0;entryDy=0;fillColor=#f8cecc;strokeColor=#ff0800;flowAnimation=1;" parent="77e6c97f196da883-6" source="rSFsk-fasPT_X7yhRa_L-94" target="rSFsk-fasPT_X7yhRa_L-97" edge="1">
          <mxGeometry relative="1" as="geometry" />
        </mxCell>
        <mxCell id="rSFsk-fasPT_X7yhRa_L-105" value="&lt;font style=&quot;font-size: 18px;&quot;&gt;Sim&lt;/font&gt;" style="edgeLabel;html=1;align=center;verticalAlign=middle;resizable=0;points=[];" parent="rSFsk-fasPT_X7yhRa_L-104" vertex="1" connectable="0">
          <mxGeometry x="-0.0618" y="1" relative="1" as="geometry">
            <mxPoint as="offset" />
          </mxGeometry>
        </mxCell>
        <mxCell id="w7D7gaezyS0UYLQDGe1b-21" style="edgeStyle=orthogonalEdgeStyle;rounded=0;orthogonalLoop=1;jettySize=auto;html=1;fillColor=#60a917;strokeColor=#2D7600;flowAnimation=1;" parent="77e6c97f196da883-6" source="rSFsk-fasPT_X7yhRa_L-94" edge="1">
          <mxGeometry relative="1" as="geometry">
            <mxPoint x="648" y="328.3333333333335" as="targetPoint" />
          </mxGeometry>
        </mxCell>
        <mxCell id="rSFsk-fasPT_X7yhRa_L-94" value="&lt;span style=&quot;font-size: 18px;&quot;&gt;Gerou Bugs?&lt;/span&gt;" style="rhombus;whiteSpace=wrap;html=1;fillColor=#fad7ac;strokeColor=#b46504;" parent="77e6c97f196da883-6" vertex="1">
          <mxGeometry x="45.320000000000164" y="387" width="139" height="110" as="geometry" />
        </mxCell>
        <mxCell id="rSFsk-fasPT_X7yhRa_L-97" value="&lt;span style=&quot;font-size: 18px;&quot;&gt;CrÃ­tico?&lt;/span&gt;" style="rhombus;whiteSpace=wrap;html=1;fillColor=#fad7ac;strokeColor=#b46504;" parent="77e6c97f196da883-6" vertex="1">
          <mxGeometry x="44.320000000000164" y="221" width="139" height="110" as="geometry" />
        </mxCell>
        <mxCell id="rSFsk-fasPT_X7yhRa_L-101" style="edgeStyle=orthogonalEdgeStyle;rounded=0;orthogonalLoop=1;jettySize=auto;html=1;entryX=0.471;entryY=0.932;entryDx=0;entryDy=0;entryPerimeter=0;fillColor=#f8cecc;strokeColor=#ff0800;flowAnimation=1;" parent="77e6c97f196da883-6" source="rSFsk-fasPT_X7yhRa_L-97" target="rSFsk-fasPT_X7yhRa_L-86" edge="1">
          <mxGeometry relative="1" as="geometry" />
        </mxCell>
        <mxCell id="rSFsk-fasPT_X7yhRa_L-102" value="&lt;font style=&quot;font-size: 18px;&quot;&gt;Sim&lt;/font&gt;" style="edgeLabel;html=1;align=center;verticalAlign=middle;resizable=0;points=[];" parent="rSFsk-fasPT_X7yhRa_L-101" vertex="1" connectable="0">
          <mxGeometry x="0.0512" y="-1" relative="1" as="geometry">
            <mxPoint as="offset" />
          </mxGeometry>
        </mxCell>
        <mxCell id="rSFsk-fasPT_X7yhRa_L-107" style="edgeStyle=orthogonalEdgeStyle;rounded=0;orthogonalLoop=1;jettySize=auto;html=1;fillColor=#647687;strokeColor=#314354;flowAnimation=1;entryX=0;entryY=0.5;entryDx=0;entryDy=0;entryPerimeter=0;exitX=0.962;exitY=0.756;exitDx=0;exitDy=0;exitPerimeter=0;" parent="77e6c97f196da883-6" source="rSFsk-fasPT_X7yhRa_L-88" edge="1">
          <mxGeometry relative="1" as="geometry">
            <mxPoint x="315.27" y="528.53" as="targetPoint" />
            <mxPoint x="190.00000000000003" y="610.53" as="sourcePoint" />
          </mxGeometry>
        </mxCell>
        <mxCell id="rSFsk-fasPT_X7yhRa_L-108" value="&lt;font style=&quot;font-size: 18px;&quot;&gt;EvidÃªncias&amp;nbsp;&lt;br&gt;dos testes&lt;/font&gt;" style="edgeLabel;html=1;align=center;verticalAlign=middle;resizable=0;points=[];" parent="rSFsk-fasPT_X7yhRa_L-107" vertex="1" connectable="0">
          <mxGeometry x="0.3197" y="-1" relative="1" as="geometry">
            <mxPoint as="offset" />
          </mxGeometry>
        </mxCell>
        <mxCell id="rSFsk-fasPT_X7yhRa_L-109" value="Log" style="html=1;whiteSpace=wrap;strokeColor=none;fillColor=#0079D6;labelPosition=center;verticalLabelPosition=middle;verticalAlign=top;align=center;fontSize=12;outlineConnect=0;spacingTop=-6;fontColor=#FFFFFF;sketch=0;shape=mxgraph.sitemap.log;" parent="77e6c97f196da883-6" vertex="1">
          <mxGeometry x="270" y="462" width="80" height="60" as="geometry" />
        </mxCell>
        <mxCell id="w7D7gaezyS0UYLQDGe1b-67" style="edgeStyle=orthogonalEdgeStyle;rounded=0;orthogonalLoop=1;jettySize=auto;html=1;fillColor=#f8cecc;gradientColor=#ea6b66;strokeColor=#f00800;flowAnimation=1;" parent="77e6c97f196da883-6" source="w7D7gaezyS0UYLQDGe1b-6" edge="1">
          <mxGeometry relative="1" as="geometry">
            <mxPoint x="-630.9230769230771" y="249.61538461538453" as="targetPoint" />
            <Array as="points">
              <mxPoint x="376" y="50" />
              <mxPoint x="-631" y="50" />
            </Array>
          </mxGeometry>
        </mxCell>
        <mxCell id="w7D7gaezyS0UYLQDGe1b-6" value="" style="rounded=0;whiteSpace=wrap;html=1;" parent="77e6c97f196da883-6" vertex="1">
          <mxGeometry x="266" y="64" width="220" height="106" as="geometry" />
        </mxCell>
        <mxCell id="w7D7gaezyS0UYLQDGe1b-17" style="edgeStyle=orthogonalEdgeStyle;rounded=0;orthogonalLoop=1;jettySize=auto;html=1;entryX=1;entryY=0.5;entryDx=0;entryDy=0;fillColor=#f8cecc;strokeColor=#ff0800;flowAnimation=1;" parent="77e6c97f196da883-6" source="w7D7gaezyS0UYLQDGe1b-12" target="w7D7gaezyS0UYLQDGe1b-16" edge="1">
          <mxGeometry relative="1" as="geometry" />
        </mxCell>
        <mxCell id="w7D7gaezyS0UYLQDGe1b-12" value="" style="shape=mxgraph.cisco.people.androgenous_person;html=1;pointerEvents=1;dashed=0;fillColor=#036897;strokeColor=#ffffff;strokeWidth=2;verticalLabelPosition=bottom;verticalAlign=top;align=center;outlineConnect=0;" parent="77e6c97f196da883-6" vertex="1">
          <mxGeometry x="407" y="86" width="41.23" height="49" as="geometry" />
        </mxCell>
        <mxCell id="w7D7gaezyS0UYLQDGe1b-14" value="&lt;font style=&quot;font-size: 18px;&quot;&gt;QA&lt;/font&gt;" style="text;html=1;align=center;verticalAlign=middle;resizable=0;points=[];autosize=1;strokeColor=none;fillColor=none;" parent="77e6c97f196da883-6" vertex="1">
          <mxGeometry x="406.6100000000001" y="136" width="44" height="34" as="geometry" />
        </mxCell>
        <mxCell id="w7D7gaezyS0UYLQDGe1b-15" value="&lt;span style=&quot;font-size: 18px;&quot;&gt;Story Bug&lt;/span&gt;" style="text;html=1;align=center;verticalAlign=middle;resizable=0;points=[];autosize=1;strokeColor=none;fillColor=none;" parent="77e6c97f196da883-6" vertex="1">
          <mxGeometry x="269.99999999999955" y="132" width="100" height="40" as="geometry" />
        </mxCell>
        <mxCell id="w7D7gaezyS0UYLQDGe1b-16" value="" style="shape=image;html=1;verticalAlign=top;verticalLabelPosition=bottom;labelBackgroundColor=#ffffff;imageAspect=0;aspect=fixed;image=https://cdn2.iconfinder.com/data/icons/crystalproject/128x128/apps/bug.png" parent="77e6c97f196da883-6" vertex="1">
          <mxGeometry x="291" y="85" width="51" height="51" as="geometry" />
        </mxCell>
        <mxCell id="w7D7gaezyS0UYLQDGe1b-11" value="&lt;font style=&quot;font-size: 18px;&quot;&gt;Podendo ter&lt;br&gt;Testes ExploratÃ³rios&lt;/font&gt;" style="text;html=1;align=center;verticalAlign=middle;resizable=0;points=[];autosize=1;strokeColor=none;fillColor=none;" parent="77e6c97f196da883-6" vertex="1">
          <mxGeometry x="286" y="165" width="180" height="55" as="geometry" />
        </mxCell>
        <mxCell id="w7D7gaezyS0UYLQDGe1b-5" value="" style="shape=image;html=1;verticalAlign=top;verticalLabelPosition=bottom;labelBackgroundColor=#ffffff;imageAspect=0;aspect=fixed;image=https://cdn2.iconfinder.com/data/icons/crystalproject/128x128/apps/bug.png" parent="77e6c97f196da883-6" vertex="1">
          <mxGeometry x="80.81999999999994" y="70" width="70" height="70" as="geometry" />
        </mxCell>
        <mxCell id="w7D7gaezyS0UYLQDGe1b-40" style="edgeStyle=orthogonalEdgeStyle;rounded=0;orthogonalLoop=1;jettySize=auto;html=1;fillColor=#f8cecc;strokeColor=#ff0800;flowAnimation=1;" parent="77e6c97f196da883-6" edge="1">
          <mxGeometry relative="1" as="geometry">
            <mxPoint x="-631" y="428" as="targetPoint" />
            <mxPoint x="616" y="676.9999999999998" as="sourcePoint" />
            <Array as="points">
              <mxPoint x="616" y="680" />
              <mxPoint x="-631" y="680" />
            </Array>
          </mxGeometry>
        </mxCell>
        <mxCell id="rSFsk-fasPT_X7yhRa_L-89" style="edgeStyle=orthogonalEdgeStyle;rounded=0;orthogonalLoop=1;jettySize=auto;html=1;fillColor=#60a917;strokeColor=#2D7600;flowAnimation=1;" parent="77e6c97f196da883-1" source="rSFsk-fasPT_X7yhRa_L-74" edge="1">
          <mxGeometry relative="1" as="geometry">
            <mxPoint x="1820" y="630" as="targetPoint" />
            <Array as="points">
              <mxPoint x="1760" y="347" />
              <mxPoint x="1760" y="630" />
            </Array>
          </mxGeometry>
        </mxCell>
        <mxCell id="rSFsk-fasPT_X7yhRa_L-91" value="&lt;font style=&quot;font-size: 18px;&quot;&gt;Sim&lt;/font&gt;" style="edgeLabel;html=1;align=center;verticalAlign=middle;resizable=0;points=[];" parent="rSFsk-fasPT_X7yhRa_L-89" vertex="1" connectable="0">
          <mxGeometry x="-0.775" y="1" relative="1" as="geometry">
            <mxPoint as="offset" />
          </mxGeometry>
        </mxCell>
        <mxCell id="w7D7gaezyS0UYLQDGe1b-19" style="edgeStyle=orthogonalEdgeStyle;rounded=0;orthogonalLoop=1;jettySize=auto;html=1;fillColor=#f8cecc;strokeColor=#ff0800;flowAnimation=1;" parent="77e6c97f196da883-1" source="rSFsk-fasPT_X7yhRa_L-97" target="rSFsk-fasPT_X7yhRa_L-6" edge="1">
          <mxGeometry relative="1" as="geometry">
            <Array as="points">
              <mxPoint x="1960" y="296" />
              <mxPoint x="1960" y="700" />
              <mxPoint x="104" y="700" />
            </Array>
          </mxGeometry>
        </mxCell>
        <mxCell id="77e6c97f196da883-7" value="&lt;font style=&quot;font-size: 14px;&quot;&gt;ProduÃ§Ã£o&lt;/font&gt;" style="swimlane;html=1;startSize=20;fillColor=#EA6B66;strokeColor=#b85450;" parent="77e6c97f196da883-1" vertex="1">
          <mxGeometry x="2245" y="20" width="730" height="765" as="geometry" />
        </mxCell>
        <mxCell id="w7D7gaezyS0UYLQDGe1b-25" style="edgeStyle=orthogonalEdgeStyle;rounded=0;orthogonalLoop=1;jettySize=auto;html=1;fillColor=#60a917;strokeColor=#2D7600;flowAnimation=1;" parent="77e6c97f196da883-7" source="w7D7gaezyS0UYLQDGe1b-20" edge="1">
          <mxGeometry relative="1" as="geometry">
            <mxPoint x="273" y="473.3333333333335" as="targetPoint" />
          </mxGeometry>
        </mxCell>
        <mxCell id="w7D7gaezyS0UYLQDGe1b-20" value="" style="verticalLabelPosition=bottom;html=1;verticalAlign=top;align=center;strokeColor=none;fillColor=#00BEF2;shape=mxgraph.azure.cloud_service_package_file;" parent="77e6c97f196da883-7" vertex="1">
          <mxGeometry x="98" y="225.5" width="61" height="65" as="geometry" />
        </mxCell>
        <mxCell id="w7D7gaezyS0UYLQDGe1b-22" value="&lt;font style=&quot;font-size: 18px;&quot;&gt;AplicaÃ§Ã£o em ProduÃ§Ã£o&lt;/font&gt;" style="text;html=1;align=center;verticalAlign=middle;resizable=0;points=[];autosize=1;strokeColor=none;fillColor=none;" parent="77e6c97f196da883-7" vertex="1">
          <mxGeometry x="29" y="293" width="208" height="34" as="geometry" />
        </mxCell>
        <mxCell id="w7D7gaezyS0UYLQDGe1b-28" style="edgeStyle=orthogonalEdgeStyle;rounded=0;orthogonalLoop=1;jettySize=auto;html=1;fillColor=#60a917;strokeColor=#2D7600;flowAnimation=1;" parent="77e6c97f196da883-7" source="w7D7gaezyS0UYLQDGe1b-23" edge="1">
          <mxGeometry relative="1" as="geometry">
            <mxPoint x="399.66666666666697" y="517" as="targetPoint" />
          </mxGeometry>
        </mxCell>
        <mxCell id="w7D7gaezyS0UYLQDGe1b-23" value="" style="image;aspect=fixed;html=1;points=[];align=center;fontSize=12;image=img/lib/azure2/general/Load_Test.svg;" parent="77e6c97f196da883-7" vertex="1">
          <mxGeometry x="243" y="487" width="61.82" height="60" as="geometry" />
        </mxCell>
        <mxCell id="w7D7gaezyS0UYLQDGe1b-24" value="&lt;span style=&quot;font-size: 18px;&quot;&gt;Smoke Testes&lt;/span&gt;" style="edgeLabel;html=1;align=center;verticalAlign=middle;resizable=0;points=[];" parent="77e6c97f196da883-7" vertex="1" connectable="0">
          <mxGeometry x="275.9119189684211" y="567.0018295892222" as="geometry" />
        </mxCell>
        <mxCell id="w7D7gaezyS0UYLQDGe1b-41" style="edgeStyle=orthogonalEdgeStyle;rounded=0;orthogonalLoop=1;jettySize=auto;html=1;entryX=1;entryY=0.5;entryDx=0;entryDy=0;fillColor=#f8cecc;strokeColor=#fa0800;flowAnimation=1;" parent="77e6c97f196da883-7" edge="1">
          <mxGeometry relative="1" as="geometry">
            <mxPoint x="481" y="572" as="sourcePoint" />
            <mxPoint x="172.99999999999955" y="679" as="targetPoint" />
            <Array as="points">
              <mxPoint x="480" y="679" />
            </Array>
          </mxGeometry>
        </mxCell>
        <mxCell id="w7D7gaezyS0UYLQDGe1b-42" value="&lt;font style=&quot;font-size: 18px;&quot;&gt;Sim&lt;/font&gt;" style="edgeLabel;html=1;align=center;verticalAlign=middle;resizable=0;points=[];" parent="w7D7gaezyS0UYLQDGe1b-41" vertex="1" connectable="0">
          <mxGeometry x="0.1709" y="2" relative="1" as="geometry">
            <mxPoint as="offset" />
          </mxGeometry>
        </mxCell>
        <mxCell id="w7D7gaezyS0UYLQDGe1b-45" style="edgeStyle=orthogonalEdgeStyle;rounded=0;orthogonalLoop=1;jettySize=auto;html=1;fillColor=#647687;strokeColor=#314354;flowAnimation=1;" parent="77e6c97f196da883-7" source="w7D7gaezyS0UYLQDGe1b-26" edge="1">
          <mxGeometry relative="1" as="geometry">
            <mxPoint x="361" y="407.79999999999995" as="targetPoint" />
            <Array as="points">
              <mxPoint x="479" y="449" />
              <mxPoint x="361" y="449" />
            </Array>
          </mxGeometry>
        </mxCell>
        <mxCell id="w7D7gaezyS0UYLQDGe1b-50" value="&lt;font style=&quot;font-size: 18px;&quot;&gt;NÃ£o&lt;/font&gt;" style="edgeLabel;html=1;align=center;verticalAlign=middle;resizable=0;points=[];" parent="w7D7gaezyS0UYLQDGe1b-45" vertex="1" connectable="0">
          <mxGeometry x="0.0022" relative="1" as="geometry">
            <mxPoint x="9" as="offset" />
          </mxGeometry>
        </mxCell>
        <mxCell id="w7D7gaezyS0UYLQDGe1b-54" style="edgeStyle=orthogonalEdgeStyle;rounded=0;orthogonalLoop=1;jettySize=auto;html=1;fillColor=#60a917;strokeColor=#2D7600;flowAnimation=1;" parent="77e6c97f196da883-7" source="w7D7gaezyS0UYLQDGe1b-26" edge="1">
          <mxGeometry relative="1" as="geometry">
            <mxPoint x="362" y="209" as="targetPoint" />
            <Array as="points">
              <mxPoint x="479" y="282" />
              <mxPoint x="362" y="282" />
            </Array>
          </mxGeometry>
        </mxCell>
        <mxCell id="w7D7gaezyS0UYLQDGe1b-55" value="&lt;font style=&quot;font-size: 18px;&quot;&gt;NÃ£o&lt;/font&gt;" style="edgeLabel;html=1;align=center;verticalAlign=middle;resizable=0;points=[];" parent="w7D7gaezyS0UYLQDGe1b-54" vertex="1" connectable="0">
          <mxGeometry x="-0.5543" y="2" relative="1" as="geometry">
            <mxPoint as="offset" />
          </mxGeometry>
        </mxCell>
        <mxCell id="w7D7gaezyS0UYLQDGe1b-26" value="&lt;span style=&quot;font-size: 18px;&quot;&gt;Gerou Bugs?&lt;/span&gt;" style="rhombus;whiteSpace=wrap;html=1;fillColor=#fad7ac;strokeColor=#b46504;" parent="77e6c97f196da883-7" vertex="1">
          <mxGeometry x="410" y="460" width="139" height="110" as="geometry" />
        </mxCell>
        <mxCell id="w7D7gaezyS0UYLQDGe1b-33" value="&lt;span style=&quot;font-size: 18px;&quot;&gt;BUG&lt;/span&gt;" style="text;html=1;align=center;verticalAlign=middle;resizable=0;points=[];autosize=1;strokeColor=none;fillColor=none;" parent="77e6c97f196da883-7" vertex="1">
          <mxGeometry x="109.99999999999955" y="690" width="57" height="34" as="geometry" />
        </mxCell>
        <mxCell id="w7D7gaezyS0UYLQDGe1b-34" value="" style="shape=image;html=1;verticalAlign=top;verticalLabelPosition=bottom;labelBackgroundColor=#ffffff;imageAspect=0;aspect=fixed;image=https://cdn2.iconfinder.com/data/icons/crystalproject/128x128/apps/bug.png" parent="77e6c97f196da883-7" vertex="1">
          <mxGeometry x="103" y="627" width="70" height="70" as="geometry" />
        </mxCell>
        <mxCell id="w7D7gaezyS0UYLQDGe1b-43" value="Log" style="html=1;whiteSpace=wrap;strokeColor=none;fillColor=#0079D6;labelPosition=center;verticalLabelPosition=middle;verticalAlign=top;align=center;fontSize=12;outlineConnect=0;spacingTop=-6;fontColor=#FFFFFF;sketch=0;shape=mxgraph.sitemap.log;" parent="77e6c97f196da883-7" vertex="1">
          <mxGeometry x="321" y="302" width="80" height="60" as="geometry" />
        </mxCell>
        <mxCell id="w7D7gaezyS0UYLQDGe1b-46" value="&lt;font style=&quot;font-size: 18px;&quot;&gt;EvidÃªncias&amp;nbsp;&lt;br&gt;dos testes&lt;/font&gt;" style="edgeLabel;html=1;align=center;verticalAlign=middle;resizable=0;points=[];" parent="77e6c97f196da883-7" vertex="1" connectable="0">
          <mxGeometry x="-242.99939523036483" y="607.9996726359642" as="geometry">
            <mxPoint x="606" y="-222" as="offset" />
          </mxGeometry>
        </mxCell>
        <mxCell id="w7D7gaezyS0UYLQDGe1b-58" style="edgeStyle=orthogonalEdgeStyle;rounded=0;orthogonalLoop=1;jettySize=auto;html=1;fillColor=#60a917;strokeColor=#2D7600;flowAnimation=1;" parent="77e6c97f196da883-7" source="w7D7gaezyS0UYLQDGe1b-47" edge="1">
          <mxGeometry relative="1" as="geometry">
            <mxPoint x="512" y="157" as="targetPoint" />
          </mxGeometry>
        </mxCell>
        <mxCell id="w7D7gaezyS0UYLQDGe1b-47" value="" style="image;aspect=fixed;html=1;points=[];align=center;fontSize=12;image=img/lib/azure2/management_governance/Metrics.svg;" parent="77e6c97f196da883-7" vertex="1">
          <mxGeometry x="334.65" y="129" width="52.71" height="56" as="geometry" />
        </mxCell>
        <mxCell id="w7D7gaezyS0UYLQDGe1b-56" value="&lt;font style=&quot;font-size: 18px;&quot;&gt;Monitoramento&lt;/font&gt;" style="text;html=1;align=center;verticalAlign=middle;resizable=0;points=[];autosize=1;strokeColor=none;fillColor=none;" parent="77e6c97f196da883-7" vertex="1">
          <mxGeometry x="292" y="179" width="138" height="34" as="geometry" />
        </mxCell>
        <mxCell id="w7D7gaezyS0UYLQDGe1b-60" style="edgeStyle=orthogonalEdgeStyle;rounded=0;orthogonalLoop=1;jettySize=auto;html=1;fillColor=#60a917;strokeColor=#2D7600;flowAnimation=1;" parent="77e6c97f196da883-7" source="w7D7gaezyS0UYLQDGe1b-57" target="w7D7gaezyS0UYLQDGe1b-59" edge="1">
          <mxGeometry relative="1" as="geometry" />
        </mxCell>
        <mxCell id="w7D7gaezyS0UYLQDGe1b-61" value="&lt;font style=&quot;font-size: 18px;&quot;&gt;NÃ£o&lt;/font&gt;" style="edgeLabel;html=1;align=center;verticalAlign=middle;resizable=0;points=[];" parent="w7D7gaezyS0UYLQDGe1b-60" vertex="1" connectable="0">
          <mxGeometry x="-0.1221" y="2" relative="1" as="geometry">
            <mxPoint y="-1" as="offset" />
          </mxGeometry>
        </mxCell>
        <mxCell id="w7D7gaezyS0UYLQDGe1b-64" style="edgeStyle=orthogonalEdgeStyle;rounded=0;orthogonalLoop=1;jettySize=auto;html=1;fillColor=#f8cecc;gradientColor=#ea6b66;strokeColor=#ff0800;flowAnimation=1;" parent="77e6c97f196da883-7" source="w7D7gaezyS0UYLQDGe1b-57" target="w7D7gaezyS0UYLQDGe1b-63" edge="1">
          <mxGeometry relative="1" as="geometry">
            <Array as="points">
              <mxPoint x="591" y="83" />
            </Array>
          </mxGeometry>
        </mxCell>
        <mxCell id="w7D7gaezyS0UYLQDGe1b-65" value="&lt;font style=&quot;font-size: 18px;&quot;&gt;Sim&lt;/font&gt;" style="edgeLabel;html=1;align=center;verticalAlign=middle;resizable=0;points=[];" parent="w7D7gaezyS0UYLQDGe1b-64" vertex="1" connectable="0">
          <mxGeometry x="-0.15" y="5" relative="1" as="geometry">
            <mxPoint x="-36" y="-5" as="offset" />
          </mxGeometry>
        </mxCell>
        <mxCell id="w7D7gaezyS0UYLQDGe1b-57" value="&lt;span style=&quot;font-size: 18px;&quot;&gt;Bug em ProduÃ§Ã£o?&lt;/span&gt;" style="rhombus;whiteSpace=wrap;html=1;fillColor=#fad7ac;strokeColor=#b46504;" parent="77e6c97f196da883-7" vertex="1">
          <mxGeometry x="522" y="102.5" width="139" height="110" as="geometry" />
        </mxCell>
        <mxCell id="w7D7gaezyS0UYLQDGe1b-59" value="" style="sketch=0;html=1;aspect=fixed;strokeColor=none;shadow=0;align=center;fillColor=#2D9C5E;verticalAlign=top;labelPosition=center;verticalLabelPosition=bottom;shape=mxgraph.gcp2.check" parent="77e6c97f196da883-7" vertex="1">
          <mxGeometry x="561.5" y="290.5" width="60" height="48" as="geometry" />
        </mxCell>
        <mxCell id="w7D7gaezyS0UYLQDGe1b-62" value="&lt;span style=&quot;font-size: 18px;&quot;&gt;BUG&lt;/span&gt;" style="text;html=1;align=center;verticalAlign=middle;resizable=0;points=[];autosize=1;strokeColor=none;fillColor=none;" parent="77e6c97f196da883-7" vertex="1">
          <mxGeometry x="185.99999999999955" y="128" width="57" height="34" as="geometry" />
        </mxCell>
        <mxCell id="w7D7gaezyS0UYLQDGe1b-69" style="edgeStyle=orthogonalEdgeStyle;rounded=0;orthogonalLoop=1;jettySize=auto;html=1;fillColor=#f8cecc;gradientColor=#ea6b66;strokeColor=#ff0800;flowAnimation=1;" parent="77e6c97f196da883-7" edge="1">
          <mxGeometry relative="1" as="geometry">
            <mxPoint x="-1147" y="246" as="targetPoint" />
            <mxPoint x="214" y="63" as="sourcePoint" />
            <Array as="points">
              <mxPoint x="214" y="50" />
              <mxPoint x="-1146" y="50" />
              <mxPoint x="-1146" y="246" />
            </Array>
          </mxGeometry>
        </mxCell>
        <mxCell id="w7D7gaezyS0UYLQDGe1b-63" value="" style="shape=image;html=1;verticalAlign=top;verticalLabelPosition=bottom;labelBackgroundColor=#ffffff;imageAspect=0;aspect=fixed;image=https://cdn2.iconfinder.com/data/icons/crystalproject/128x128/apps/bug.png" parent="77e6c97f196da883-7" vertex="1">
          <mxGeometry x="179" y="65" width="70" height="70" as="geometry" />
        </mxCell>
        <mxCell id="rSFsk-fasPT_X7yhRa_L-25" value="&lt;br&gt;&lt;font style=&quot;font-size: 18px;&quot;&gt;&amp;nbsp;Detalhamento de tarefas&amp;nbsp;&amp;nbsp;&lt;/font&gt;" style="text;html=1;align=center;verticalAlign=middle;resizable=0;points=[];autosize=1;strokeColor=none;fillColor=none;" parent="1" vertex="1">
          <mxGeometry x="478" y="632" width="240" height="50" as="geometry" />
        </mxCell>
        <mxCell id="rSFsk-fasPT_X7yhRa_L-27" value="&lt;div&gt;&lt;font style=&quot;font-size: 18px;&quot;&gt;CenÃ¡rios de teste&lt;/font&gt;&lt;/div&gt;&lt;div&gt;&lt;font size=&quot;3&quot;&gt;Pontos de atenÃ§Ã£o&lt;/font&gt;&lt;/div&gt;&lt;div&gt;&lt;font size=&quot;3&quot;&gt;MitigaÃ§Ã£o de riscos&amp;nbsp;&lt;/font&gt;&lt;/div&gt;" style="text;html=1;align=center;verticalAlign=middle;resizable=0;points=[];autosize=1;strokeColor=none;fillColor=none;" parent="1" vertex="1">
          <mxGeometry x="769" y="634" width="160" height="70" as="geometry" />
        </mxCell>
        <mxCell id="w7D7gaezyS0UYLQDGe1b-30" value="" style="shape=image;html=1;verticalAlign=top;verticalLabelPosition=bottom;labelBackgroundColor=#ffffff;imageAspect=0;aspect=fixed;image=https://cdn2.iconfinder.com/data/icons/crystalproject/128x128/apps/bug.png" parent="1" vertex="1">
          <mxGeometry x="1598.9099999999999" y="129" width="70" height="70" as="geometry" />
        </mxCell>
        <mxCell id="QuTmqwlnSlKRY2pRDbIC-115" value="&lt;font style=&quot;font-size: 24px;&quot;&gt;Testes no Ciclo de Vida de Desenvolvimento de Software (SDLC)&lt;/font&gt;" style="swimlane;html=1;childLayout=stackLayout;startSize=20;rounded=0;shadow=0;labelBackgroundColor=none;strokeWidth=1;fontFamily=Verdana;fontSize=8;align=center;fillColor=#e1d5e7;strokeColor=#9673a6;" vertex="1" parent="1">
          <mxGeometry x="45" y="869" width="2975" height="785" as="geometry" />
        </mxCell>
        <mxCell id="QuTmqwlnSlKRY2pRDbIC-116" value="&lt;font style=&quot;font-size: 14px;&quot;&gt;Refinamento / Planning&lt;/font&gt;" style="swimlane;html=1;startSize=20;fillColor=#3399FF;strokeColor=#000000;fontColor=#ffffff;fillStyle=solid;gradientColor=none;" vertex="1" parent="QuTmqwlnSlKRY2pRDbIC-115">
          <mxGeometry y="20" width="970" height="765" as="geometry">
            <mxRectangle y="20" width="32" height="730" as="alternateBounds" />
          </mxGeometry>
        </mxCell>
        <mxCell id="QuTmqwlnSlKRY2pRDbIC-117" value="" style="edgeStyle=orthogonalEdgeStyle;rounded=0;orthogonalLoop=1;jettySize=auto;html=1;fillColor=#60a917;strokeColor=#2D7600;flowAnimation=1;" edge="1" parent="QuTmqwlnSlKRY2pRDbIC-116" source="QuTmqwlnSlKRY2pRDbIC-119">
          <mxGeometry relative="1" as="geometry">
            <mxPoint x="100" y="290" as="targetPoint" />
          </mxGeometry>
        </mxCell>
        <mxCell id="QuTmqwlnSlKRY2pRDbIC-118" value="&lt;div style=&quot;font-size: 12px; background-color: rgb(251, 251, 251);&quot;&gt;&lt;span style=&quot;font-size: 18px;&quot;&gt;Requisitos do produto&lt;/span&gt;&lt;/div&gt;&lt;div style=&quot;font-size: 12px; background-color: rgb(251, 251, 251);&quot;&gt;&lt;span style=&quot;font-size: 18px;&quot;&gt;com os stakeholders&amp;nbsp;&lt;/span&gt;&lt;/div&gt;" style="edgeLabel;html=1;align=center;verticalAlign=middle;resizable=0;points=[];" vertex="1" connectable="0" parent="QuTmqwlnSlKRY2pRDbIC-117">
          <mxGeometry x="0.6082" y="-2" relative="1" as="geometry">
            <mxPoint y="-53" as="offset" />
          </mxGeometry>
        </mxCell>
        <mxCell id="QuTmqwlnSlKRY2pRDbIC-119" value="" style="sketch=0;html=1;aspect=fixed;strokeColor=#23445d;shadow=0;fillColor=#007FFF;verticalAlign=top;labelPosition=center;verticalLabelPosition=bottom;shape=mxgraph.gcp2.view_list;" vertex="1" parent="QuTmqwlnSlKRY2pRDbIC-116">
          <mxGeometry x="75.7" y="80" width="48.6" height="60" as="geometry" />
        </mxCell>
        <mxCell id="QuTmqwlnSlKRY2pRDbIC-120" value="" style="sketch=0;pointerEvents=1;shadow=0;dashed=0;html=1;strokeColor=#23445d;fillColor=#007FFF;labelPosition=center;verticalLabelPosition=bottom;verticalAlign=top;outlineConnect=0;align=center;shape=mxgraph.office.concepts.book_journal;" vertex="1" parent="QuTmqwlnSlKRY2pRDbIC-116">
          <mxGeometry x="77.30000000000001" y="302" width="41" height="49" as="geometry" />
        </mxCell>
        <mxCell id="QuTmqwlnSlKRY2pRDbIC-121" value="&lt;span style=&quot;font-size: 18px;&quot;&gt;Backlog&amp;nbsp;&lt;/span&gt;" style="text;html=1;align=center;verticalAlign=middle;resizable=0;points=[];autosize=1;strokeColor=none;fillColor=none;" vertex="1" parent="QuTmqwlnSlKRY2pRDbIC-116">
          <mxGeometry x="58.8" y="356" width="90" height="40" as="geometry" />
        </mxCell>
        <mxCell id="QuTmqwlnSlKRY2pRDbIC-122" style="edgeStyle=orthogonalEdgeStyle;rounded=0;orthogonalLoop=1;jettySize=auto;html=1;fillColor=#60a917;strokeColor=#2D7600;flowAnimation=1;" edge="1" parent="QuTmqwlnSlKRY2pRDbIC-116" source="QuTmqwlnSlKRY2pRDbIC-124" target="QuTmqwlnSlKRY2pRDbIC-128">
          <mxGeometry relative="1" as="geometry">
            <mxPoint x="470" y="326" as="targetPoint" />
          </mxGeometry>
        </mxCell>
        <mxCell id="QuTmqwlnSlKRY2pRDbIC-123" value="&lt;font style=&quot;font-size: 18px;&quot;&gt;Sim&lt;/font&gt;" style="edgeLabel;html=1;align=center;verticalAlign=middle;resizable=0;points=[];" vertex="1" connectable="0" parent="QuTmqwlnSlKRY2pRDbIC-122">
          <mxGeometry x="-0.057" y="-1" relative="1" as="geometry">
            <mxPoint as="offset" />
          </mxGeometry>
        </mxCell>
        <mxCell id="QuTmqwlnSlKRY2pRDbIC-124" value="&lt;div&gt;&lt;font style=&quot;font-size: 18px;&quot;&gt;Requisito&lt;/font&gt;&lt;/div&gt;&lt;div&gt;&lt;font size=&quot;3&quot;&gt;Aceito?&lt;/font&gt;&lt;/div&gt;" style="rhombus;whiteSpace=wrap;html=1;fillColor=#fad7ac;strokeColor=#b46504;" vertex="1" parent="QuTmqwlnSlKRY2pRDbIC-116">
          <mxGeometry x="225" y="270.5" width="139" height="110" as="geometry" />
        </mxCell>
        <mxCell id="QuTmqwlnSlKRY2pRDbIC-125" style="edgeStyle=orthogonalEdgeStyle;rounded=0;orthogonalLoop=1;jettySize=auto;html=1;fillColor=#60a917;strokeColor=#2D7600;flowAnimation=1;" edge="1" parent="QuTmqwlnSlKRY2pRDbIC-116" source="QuTmqwlnSlKRY2pRDbIC-120">
          <mxGeometry relative="1" as="geometry">
            <mxPoint x="220" y="326" as="targetPoint" />
          </mxGeometry>
        </mxCell>
        <mxCell id="QuTmqwlnSlKRY2pRDbIC-126" style="edgeStyle=orthogonalEdgeStyle;rounded=0;orthogonalLoop=1;jettySize=auto;html=1;exitX=0.5;exitY=0;exitDx=0;exitDy=0;strokeColor=#ff0800;flowAnimation=1;" edge="1" parent="QuTmqwlnSlKRY2pRDbIC-116" source="QuTmqwlnSlKRY2pRDbIC-124">
          <mxGeometry relative="1" as="geometry">
            <mxPoint x="130" y="100" as="targetPoint" />
            <Array as="points">
              <mxPoint x="295" y="100" />
            </Array>
          </mxGeometry>
        </mxCell>
        <mxCell id="QuTmqwlnSlKRY2pRDbIC-127" value="&lt;font style=&quot;font-size: 18px;&quot;&gt;NÃ£o&lt;/font&gt;" style="edgeLabel;html=1;align=center;verticalAlign=middle;resizable=0;points=[];" vertex="1" connectable="0" parent="QuTmqwlnSlKRY2pRDbIC-126">
          <mxGeometry x="-0.2786" y="-3" relative="1" as="geometry">
            <mxPoint as="offset" />
          </mxGeometry>
        </mxCell>
        <mxCell id="QuTmqwlnSlKRY2pRDbIC-238" style="edgeStyle=orthogonalEdgeStyle;rounded=0;orthogonalLoop=1;jettySize=auto;html=1;entryX=0;entryY=0.5;entryDx=0;entryDy=0;flowAnimation=1;fillColor=#60a917;strokeColor=#2D7600;" edge="1" parent="QuTmqwlnSlKRY2pRDbIC-116" source="QuTmqwlnSlKRY2pRDbIC-128" target="QuTmqwlnSlKRY2pRDbIC-138">
          <mxGeometry relative="1" as="geometry" />
        </mxCell>
        <mxCell id="QuTmqwlnSlKRY2pRDbIC-128" value="" style="sketch=0;pointerEvents=1;shadow=0;dashed=0;html=1;strokeColor=#23445d;fillColor=#007FFF;labelPosition=center;verticalLabelPosition=bottom;verticalAlign=top;outlineConnect=0;align=center;shape=mxgraph.office.sites.site_team;" vertex="1" parent="QuTmqwlnSlKRY2pRDbIC-116">
          <mxGeometry x="508" y="291" width="84.49" height="69" as="geometry" />
        </mxCell>
        <mxCell id="QuTmqwlnSlKRY2pRDbIC-135" style="edgeStyle=orthogonalEdgeStyle;rounded=0;orthogonalLoop=1;jettySize=auto;html=1;fillColor=#f8cecc;strokeColor=#ff0800;flowAnimation=1;" edge="1" parent="QuTmqwlnSlKRY2pRDbIC-116" source="QuTmqwlnSlKRY2pRDbIC-138">
          <mxGeometry relative="1" as="geometry">
            <mxPoint x="775.5" y="190" as="targetPoint" />
          </mxGeometry>
        </mxCell>
        <mxCell id="QuTmqwlnSlKRY2pRDbIC-136" value="&lt;font style=&quot;font-size: 18px;&quot;&gt;NÃ£o&lt;/font&gt;" style="edgeLabel;html=1;align=center;verticalAlign=middle;resizable=0;points=[];" vertex="1" connectable="0" parent="QuTmqwlnSlKRY2pRDbIC-135">
          <mxGeometry x="-0.0593" y="3" relative="1" as="geometry">
            <mxPoint as="offset" />
          </mxGeometry>
        </mxCell>
        <mxCell id="QuTmqwlnSlKRY2pRDbIC-137" style="edgeStyle=orthogonalEdgeStyle;rounded=0;orthogonalLoop=1;jettySize=auto;html=1;fillColor=#60a917;strokeColor=#2D7600;flowAnimation=1;" edge="1" parent="QuTmqwlnSlKRY2pRDbIC-116">
          <mxGeometry relative="1" as="geometry">
            <mxPoint x="1060" y="326" as="targetPoint" />
            <mxPoint x="796.9097402597404" y="325.57142857142867" as="sourcePoint" />
          </mxGeometry>
        </mxCell>
        <mxCell id="QuTmqwlnSlKRY2pRDbIC-138" value="&lt;div&gt;&lt;font style=&quot;font-size: 18px;&quot;&gt;Requisito&lt;/font&gt;&lt;/div&gt;&lt;div&gt;&lt;font size=&quot;3&quot;&gt;Detalhados?&lt;/font&gt;&lt;/div&gt;" style="rhombus;whiteSpace=wrap;html=1;fillColor=#fad7ac;strokeColor=#b46504;" vertex="1" parent="QuTmqwlnSlKRY2pRDbIC-116">
          <mxGeometry x="706" y="270.5" width="139" height="110" as="geometry" />
        </mxCell>
        <mxCell id="QuTmqwlnSlKRY2pRDbIC-239" style="edgeStyle=orthogonalEdgeStyle;rounded=0;orthogonalLoop=1;jettySize=auto;html=1;fillColor=#60a917;strokeColor=#2D7600;flowAnimation=1;" edge="1" parent="QuTmqwlnSlKRY2pRDbIC-116" source="QuTmqwlnSlKRY2pRDbIC-139" target="QuTmqwlnSlKRY2pRDbIC-128">
          <mxGeometry relative="1" as="geometry" />
        </mxCell>
        <mxCell id="QuTmqwlnSlKRY2pRDbIC-139" value="" style="verticalLabelPosition=bottom;html=1;verticalAlign=top;align=center;strokeColor=#23445d;fillColor=#007FFF;shape=mxgraph.azure.file_2;pointerEvents=1;" vertex="1" parent="QuTmqwlnSlKRY2pRDbIC-116">
          <mxGeometry x="751.75" y="110" width="53.25" height="70" as="geometry" />
        </mxCell>
        <mxCell id="QuTmqwlnSlKRY2pRDbIC-140" value="&lt;span style=&quot;font-size: 18px;&quot;&gt;Novo alinhamento com PO&lt;/span&gt;" style="text;html=1;align=center;verticalAlign=middle;resizable=0;points=[];autosize=1;strokeColor=none;fillColor=none;" vertex="1" parent="QuTmqwlnSlKRY2pRDbIC-116">
          <mxGeometry x="660.38" y="69" width="233" height="34" as="geometry" />
        </mxCell>
        <mxCell id="QuTmqwlnSlKRY2pRDbIC-225" value="&lt;div&gt;&lt;span style=&quot;font-size: 18px;&quot;&gt;Refinamento&amp;nbsp;&lt;/span&gt;&lt;/div&gt;&lt;div&gt;&lt;span style=&quot;font-size: 18px;&quot;&gt;de tarefas&amp;nbsp;&lt;/span&gt;&lt;/div&gt;&lt;div&gt;&lt;span style=&quot;font-size: 18px;&quot;&gt;com o Time&amp;nbsp;&lt;/span&gt;&lt;/div&gt;" style="text;html=1;align=center;verticalAlign=middle;resizable=0;points=[];autosize=1;strokeColor=none;fillColor=none;" vertex="1" parent="QuTmqwlnSlKRY2pRDbIC-116">
          <mxGeometry x="485" y="371" width="125" height="77" as="geometry" />
        </mxCell>
        <mxCell id="QuTmqwlnSlKRY2pRDbIC-141" value="&lt;font style=&quot;font-size: 14px;&quot;&gt;Desenvolvimento&lt;/font&gt;" style="swimlane;html=1;startSize=20;fillColor=#12570A;strokeColor=#000000;fontColor=#ffffff;fillStyle=solid;" vertex="1" parent="QuTmqwlnSlKRY2pRDbIC-115">
          <mxGeometry x="970" y="20" width="210" height="765" as="geometry" />
        </mxCell>
        <mxCell id="QuTmqwlnSlKRY2pRDbIC-142" style="edgeStyle=orthogonalEdgeStyle;rounded=0;orthogonalLoop=1;jettySize=auto;html=1;fillColor=#60a917;strokeColor=#2D7600;flowAnimation=1;" edge="1" parent="QuTmqwlnSlKRY2pRDbIC-141" source="QuTmqwlnSlKRY2pRDbIC-143">
          <mxGeometry relative="1" as="geometry">
            <mxPoint x="300.00000000000045" y="326.5" as="targetPoint" />
          </mxGeometry>
        </mxCell>
        <mxCell id="QuTmqwlnSlKRY2pRDbIC-143" value="" style="verticalLabelPosition=bottom;html=1;verticalAlign=top;align=center;strokeColor=none;fillColor=#00BEF2;shape=mxgraph.azure.code_file;pointerEvents=1;" vertex="1" parent="QuTmqwlnSlKRY2pRDbIC-141">
          <mxGeometry x="102" y="289.5" width="58.25" height="74" as="geometry" />
        </mxCell>
        <mxCell id="QuTmqwlnSlKRY2pRDbIC-144" value="&lt;span style=&quot;font-size: 18px;&quot;&gt;CodificaÃ§Ã£o&lt;/span&gt;" style="edgeLabel;html=1;align=center;verticalAlign=middle;resizable=0;points=[];" vertex="1" connectable="0" parent="QuTmqwlnSlKRY2pRDbIC-141">
          <mxGeometry x="104.99529411764684" y="273.995882352941" as="geometry">
            <mxPoint x="25" y="1" as="offset" />
          </mxGeometry>
        </mxCell>
        <mxCell id="QuTmqwlnSlKRY2pRDbIC-145" value="&lt;font style=&quot;font-size: 14px;&quot;&gt;Code Review&lt;/font&gt;" style="swimlane;html=1;startSize=20;fillColor=#CF8FF0;strokeColor=#500075;fillStyle=solid;" vertex="1" parent="QuTmqwlnSlKRY2pRDbIC-115">
          <mxGeometry x="1180" y="20" width="270" height="765" as="geometry" />
        </mxCell>
        <mxCell id="QuTmqwlnSlKRY2pRDbIC-148" style="edgeStyle=orthogonalEdgeStyle;rounded=0;orthogonalLoop=1;jettySize=auto;html=1;exitX=1;exitY=0.5;exitDx=0;exitDy=0;fillColor=#60a917;strokeColor=#2D7600;flowAnimation=1;" edge="1" parent="QuTmqwlnSlKRY2pRDbIC-145" source="QuTmqwlnSlKRY2pRDbIC-150">
          <mxGeometry relative="1" as="geometry">
            <mxPoint x="350" y="576.0588235294117" as="targetPoint" />
          </mxGeometry>
        </mxCell>
        <mxCell id="QuTmqwlnSlKRY2pRDbIC-149" value="&lt;font style=&quot;font-size: 18px;&quot;&gt;Sim&lt;/font&gt;" style="edgeLabel;html=1;align=center;verticalAlign=middle;resizable=0;points=[];" vertex="1" connectable="0" parent="QuTmqwlnSlKRY2pRDbIC-148">
          <mxGeometry x="0.1706" y="1" relative="1" as="geometry">
            <mxPoint as="offset" />
          </mxGeometry>
        </mxCell>
        <mxCell id="QuTmqwlnSlKRY2pRDbIC-150" value="&lt;span style=&quot;font-size: 18px;&quot;&gt;CÃ³digo OK?&lt;/span&gt;" style="rhombus;whiteSpace=wrap;html=1;fillColor=#fad7ac;strokeColor=#b46504;" vertex="1" parent="QuTmqwlnSlKRY2pRDbIC-145">
          <mxGeometry x="72.5" y="521" width="139" height="110" as="geometry" />
        </mxCell>
        <mxCell id="QuTmqwlnSlKRY2pRDbIC-151" style="edgeStyle=orthogonalEdgeStyle;rounded=0;orthogonalLoop=1;jettySize=auto;html=1;fillColor=#60a917;strokeColor=#2D7600;flowAnimation=1;" edge="1" parent="QuTmqwlnSlKRY2pRDbIC-145" source="QuTmqwlnSlKRY2pRDbIC-152">
          <mxGeometry relative="1" as="geometry">
            <mxPoint x="141.5" y="520" as="targetPoint" />
          </mxGeometry>
        </mxCell>
        <mxCell id="QuTmqwlnSlKRY2pRDbIC-152" value="" style="html=1;verticalLabelPosition=bottom;align=center;labelBackgroundColor=#ffffff;verticalAlign=top;strokeWidth=2;strokeColor=#0080F0;shadow=0;dashed=0;shape=mxgraph.ios7.icons.eye;" vertex="1" parent="QuTmqwlnSlKRY2pRDbIC-145">
          <mxGeometry x="96.5" y="302" width="90" height="50" as="geometry" />
        </mxCell>
        <mxCell id="QuTmqwlnSlKRY2pRDbIC-153" value="&lt;span style=&quot;font-size: 18px;&quot;&gt;Code Review&lt;/span&gt;" style="text;html=1;align=center;verticalAlign=middle;resizable=0;points=[];autosize=1;strokeColor=none;fillColor=none;" vertex="1" parent="QuTmqwlnSlKRY2pRDbIC-145">
          <mxGeometry x="80" y="250" width="130" height="40" as="geometry" />
        </mxCell>
        <mxCell id="QuTmqwlnSlKRY2pRDbIC-229" value="&lt;span style=&quot;font-size: 18px;&quot;&gt;BUG&lt;/span&gt;" style="text;html=1;align=center;verticalAlign=middle;resizable=0;points=[];autosize=1;strokeColor=none;fillColor=none;" vertex="1" parent="QuTmqwlnSlKRY2pRDbIC-145">
          <mxGeometry x="-51.00000000000023" y="597" width="57" height="34" as="geometry" />
        </mxCell>
        <mxCell id="QuTmqwlnSlKRY2pRDbIC-234" style="edgeStyle=orthogonalEdgeStyle;rounded=0;orthogonalLoop=1;jettySize=auto;html=1;fillColor=#f8cecc;strokeColor=#ff0800;flowAnimation=1;" edge="1" parent="QuTmqwlnSlKRY2pRDbIC-145" source="QuTmqwlnSlKRY2pRDbIC-230">
          <mxGeometry relative="1" as="geometry">
            <mxPoint x="-80.94291960887404" y="379.69843546549487" as="targetPoint" />
          </mxGeometry>
        </mxCell>
        <mxCell id="QuTmqwlnSlKRY2pRDbIC-230" value="" style="shape=image;html=1;verticalAlign=top;verticalLabelPosition=bottom;labelBackgroundColor=#ffffff;imageAspect=0;aspect=fixed;image=https://cdn2.iconfinder.com/data/icons/crystalproject/128x128/apps/bug.png" vertex="1" parent="QuTmqwlnSlKRY2pRDbIC-145">
          <mxGeometry x="-58.00000000000023" y="530" width="70" height="70" as="geometry" />
        </mxCell>
        <mxCell id="QuTmqwlnSlKRY2pRDbIC-232" style="edgeStyle=orthogonalEdgeStyle;rounded=0;orthogonalLoop=1;jettySize=auto;html=1;entryX=0.988;entryY=0.652;entryDx=0;entryDy=0;entryPerimeter=0;fillColor=#f8cecc;strokeColor=#ff0800;flowAnimation=1;" edge="1" parent="QuTmqwlnSlKRY2pRDbIC-145" source="QuTmqwlnSlKRY2pRDbIC-150" target="QuTmqwlnSlKRY2pRDbIC-230">
          <mxGeometry relative="1" as="geometry" />
        </mxCell>
        <mxCell id="QuTmqwlnSlKRY2pRDbIC-233" value="&lt;font style=&quot;font-size: 18px;&quot;&gt;NÃ£o&lt;/font&gt;" style="edgeLabel;html=1;align=center;verticalAlign=middle;resizable=0;points=[];" vertex="1" connectable="0" parent="QuTmqwlnSlKRY2pRDbIC-232">
          <mxGeometry x="0.1166" relative="1" as="geometry">
            <mxPoint x="6" as="offset" />
          </mxGeometry>
        </mxCell>
        <mxCell id="QuTmqwlnSlKRY2pRDbIC-154" value="&lt;font style=&quot;font-size: 14px;&quot;&gt;Teste (Sprint)&lt;/font&gt;" style="swimlane;html=1;startSize=20;strokeColor=#000000;fillColor=#F25B25;" vertex="1" parent="QuTmqwlnSlKRY2pRDbIC-115">
          <mxGeometry x="1450" y="20" width="280" height="765" as="geometry" />
        </mxCell>
        <mxCell id="QuTmqwlnSlKRY2pRDbIC-155" style="edgeStyle=orthogonalEdgeStyle;rounded=0;orthogonalLoop=1;jettySize=auto;html=1;fillColor=#60a917;strokeColor=#2D7600;flowAnimation=1;" edge="1" parent="QuTmqwlnSlKRY2pRDbIC-154" source="QuTmqwlnSlKRY2pRDbIC-158">
          <mxGeometry relative="1" as="geometry">
            <mxPoint x="113.90999999999985" y="390" as="targetPoint" />
          </mxGeometry>
        </mxCell>
        <mxCell id="QuTmqwlnSlKRY2pRDbIC-156" style="edgeStyle=orthogonalEdgeStyle;rounded=0;orthogonalLoop=1;jettySize=auto;html=1;fillColor=#647687;strokeColor=#314354;flowAnimation=1;" edge="1" parent="QuTmqwlnSlKRY2pRDbIC-154" source="QuTmqwlnSlKRY2pRDbIC-158">
          <mxGeometry relative="1" as="geometry">
            <mxPoint x="210" y="450" as="targetPoint" />
          </mxGeometry>
        </mxCell>
        <mxCell id="QuTmqwlnSlKRY2pRDbIC-157" value="&lt;span style=&quot;font-size: 18px;&quot;&gt;EvidÃªncias&lt;/span&gt;" style="edgeLabel;html=1;align=center;verticalAlign=middle;resizable=0;points=[];" vertex="1" connectable="0" parent="QuTmqwlnSlKRY2pRDbIC-156">
          <mxGeometry x="0.3197" y="-1" relative="1" as="geometry">
            <mxPoint as="offset" />
          </mxGeometry>
        </mxCell>
        <mxCell id="QuTmqwlnSlKRY2pRDbIC-158" value="" style="image;aspect=fixed;html=1;points=[];align=center;fontSize=12;image=img/lib/azure2/general/Load_Test.svg;" vertex="1" parent="QuTmqwlnSlKRY2pRDbIC-154">
          <mxGeometry x="83" y="524" width="61.82" height="60" as="geometry" />
        </mxCell>
        <mxCell id="QuTmqwlnSlKRY2pRDbIC-159" style="edgeStyle=orthogonalEdgeStyle;rounded=0;orthogonalLoop=1;jettySize=auto;html=1;fillColor=#f8cecc;strokeColor=#db0700;flowAnimation=1;" edge="1" parent="QuTmqwlnSlKRY2pRDbIC-154" source="QuTmqwlnSlKRY2pRDbIC-161">
          <mxGeometry relative="1" as="geometry">
            <mxPoint x="113.9099999999994" y="160" as="targetPoint" />
          </mxGeometry>
        </mxCell>
        <mxCell id="QuTmqwlnSlKRY2pRDbIC-160" value="&lt;font style=&quot;font-size: 18px;&quot;&gt;NÃ£o&lt;/font&gt;" style="edgeLabel;html=1;align=center;verticalAlign=middle;resizable=0;points=[];" vertex="1" connectable="0" parent="QuTmqwlnSlKRY2pRDbIC-159">
          <mxGeometry x="-0.1211" relative="1" as="geometry">
            <mxPoint as="offset" />
          </mxGeometry>
        </mxCell>
        <mxCell id="QuTmqwlnSlKRY2pRDbIC-161" value="&lt;span style=&quot;font-size: 18px;&quot;&gt;Testes OK?&lt;/span&gt;" style="rhombus;whiteSpace=wrap;html=1;fillColor=#fad7ac;strokeColor=#b46504;" vertex="1" parent="QuTmqwlnSlKRY2pRDbIC-154">
          <mxGeometry x="44.41" y="272" width="139" height="110" as="geometry" />
        </mxCell>
        <mxCell id="QuTmqwlnSlKRY2pRDbIC-162" value="Log" style="html=1;whiteSpace=wrap;strokeColor=none;fillColor=#0079D6;labelPosition=center;verticalLabelPosition=middle;verticalAlign=top;align=center;fontSize=12;outlineConnect=0;spacingTop=-6;fontColor=#FFFFFF;sketch=0;shape=mxgraph.sitemap.log;" vertex="1" parent="QuTmqwlnSlKRY2pRDbIC-154">
          <mxGeometry x="172" y="382" width="80" height="60" as="geometry" />
        </mxCell>
        <mxCell id="QuTmqwlnSlKRY2pRDbIC-163" style="edgeStyle=orthogonalEdgeStyle;rounded=0;orthogonalLoop=1;jettySize=auto;html=1;fillColor=#f8cecc;strokeColor=#db0700;flowAnimation=1;" edge="1" parent="QuTmqwlnSlKRY2pRDbIC-154">
          <mxGeometry relative="1" as="geometry">
            <mxPoint x="-350" y="250" as="targetPoint" />
            <Array as="points">
              <mxPoint x="113" y="50" />
              <mxPoint x="-350" y="50" />
            </Array>
            <mxPoint x="113.33333333333348" y="66" as="sourcePoint" />
          </mxGeometry>
        </mxCell>
        <mxCell id="QuTmqwlnSlKRY2pRDbIC-164" value="&lt;span style=&quot;font-size: 18px;&quot;&gt;BUG&lt;/span&gt;" style="text;html=1;align=center;verticalAlign=middle;resizable=0;points=[];autosize=1;strokeColor=none;fillColor=none;" vertex="1" parent="QuTmqwlnSlKRY2pRDbIC-154">
          <mxGeometry x="85.90999999999994" y="133" width="57" height="34" as="geometry" />
        </mxCell>
        <mxCell id="QuTmqwlnSlKRY2pRDbIC-165" value="&lt;div&gt;&lt;span style=&quot;font-size: 18px;&quot;&gt;Testes&lt;/span&gt;&lt;/div&gt;" style="edgeLabel;html=1;align=center;verticalAlign=middle;resizable=0;points=[];" vertex="1" connectable="0" parent="QuTmqwlnSlKRY2pRDbIC-154">
          <mxGeometry x="113.9119189684211" y="620.0018295892222" as="geometry">
            <mxPoint x="-2" y="-11" as="offset" />
          </mxGeometry>
        </mxCell>
        <mxCell id="QuTmqwlnSlKRY2pRDbIC-166" value="&lt;font style=&quot;font-size: 14px;&quot;&gt;HomologaÃ§Ã£o (Release)&lt;/font&gt;" style="swimlane;html=1;startSize=20;fillColor=#EB7500;" vertex="1" parent="QuTmqwlnSlKRY2pRDbIC-115">
          <mxGeometry x="1730" y="20" width="515" height="765" as="geometry" />
        </mxCell>
        <mxCell id="QuTmqwlnSlKRY2pRDbIC-167" style="edgeStyle=orthogonalEdgeStyle;rounded=0;orthogonalLoop=1;jettySize=auto;html=1;fillColor=#fad9d5;strokeColor=#DB0700;flowAnimation=1;" edge="1" parent="QuTmqwlnSlKRY2pRDbIC-166">
          <mxGeometry relative="1" as="geometry">
            <mxPoint x="-630" y="250" as="targetPoint" />
            <Array as="points">
              <mxPoint x="115" y="50" />
              <mxPoint x="-630" y="50" />
            </Array>
            <mxPoint x="115.24999999999955" y="66" as="sourcePoint" />
          </mxGeometry>
        </mxCell>
        <mxCell id="QuTmqwlnSlKRY2pRDbIC-168" value="&lt;span style=&quot;font-size: 18px;&quot;&gt;BUG&lt;/span&gt;" style="text;html=1;align=center;verticalAlign=middle;resizable=0;points=[];autosize=1;strokeColor=none;fillColor=none;" vertex="1" parent="QuTmqwlnSlKRY2pRDbIC-166">
          <mxGeometry x="87.81999999999977" y="133" width="57" height="34" as="geometry" />
        </mxCell>
        <mxCell id="QuTmqwlnSlKRY2pRDbIC-169" style="edgeStyle=orthogonalEdgeStyle;rounded=0;orthogonalLoop=1;jettySize=auto;html=1;fillColor=#60a917;strokeColor=#2D7600;flowAnimation=1;" edge="1" parent="QuTmqwlnSlKRY2pRDbIC-166" source="QuTmqwlnSlKRY2pRDbIC-170" target="QuTmqwlnSlKRY2pRDbIC-175">
          <mxGeometry relative="1" as="geometry" />
        </mxCell>
        <mxCell id="QuTmqwlnSlKRY2pRDbIC-170" value="" style="image;aspect=fixed;html=1;points=[];align=center;fontSize=12;image=img/lib/azure2/general/Load_Test.svg;" vertex="1" parent="QuTmqwlnSlKRY2pRDbIC-166">
          <mxGeometry x="82.91000000000008" y="569" width="61.82" height="60" as="geometry" />
        </mxCell>
        <mxCell id="QuTmqwlnSlKRY2pRDbIC-171" value="&lt;span style=&quot;font-size: 18px;&quot;&gt;Testes&lt;/span&gt;" style="edgeLabel;html=1;align=center;verticalAlign=middle;resizable=0;points=[];" vertex="1" connectable="0" parent="QuTmqwlnSlKRY2pRDbIC-166">
          <mxGeometry x="115.82191896842119" y="649.0018295892222" as="geometry" />
        </mxCell>
        <mxCell id="QuTmqwlnSlKRY2pRDbIC-172" style="edgeStyle=orthogonalEdgeStyle;rounded=0;orthogonalLoop=1;jettySize=auto;html=1;entryX=0.5;entryY=1;entryDx=0;entryDy=0;fillColor=#f8cecc;strokeColor=#ff0800;flowAnimation=1;" edge="1" parent="QuTmqwlnSlKRY2pRDbIC-166" source="QuTmqwlnSlKRY2pRDbIC-175" target="QuTmqwlnSlKRY2pRDbIC-176">
          <mxGeometry relative="1" as="geometry" />
        </mxCell>
        <mxCell id="QuTmqwlnSlKRY2pRDbIC-173" value="&lt;font style=&quot;font-size: 18px;&quot;&gt;Sim&lt;/font&gt;" style="edgeLabel;html=1;align=center;verticalAlign=middle;resizable=0;points=[];" vertex="1" connectable="0" parent="QuTmqwlnSlKRY2pRDbIC-172">
          <mxGeometry x="-0.0618" y="1" relative="1" as="geometry">
            <mxPoint as="offset" />
          </mxGeometry>
        </mxCell>
        <mxCell id="QuTmqwlnSlKRY2pRDbIC-175" value="&lt;span style=&quot;font-size: 18px;&quot;&gt;Gerou Bugs?&lt;/span&gt;" style="rhombus;whiteSpace=wrap;html=1;fillColor=#fad7ac;strokeColor=#b46504;" vertex="1" parent="QuTmqwlnSlKRY2pRDbIC-166">
          <mxGeometry x="45.320000000000164" y="387" width="139" height="110" as="geometry" />
        </mxCell>
        <mxCell id="QuTmqwlnSlKRY2pRDbIC-176" value="&lt;span style=&quot;font-size: 18px;&quot;&gt;Bug CrÃ­tico?&lt;/span&gt;" style="rhombus;whiteSpace=wrap;html=1;fillColor=#fad7ac;strokeColor=#b46504;" vertex="1" parent="QuTmqwlnSlKRY2pRDbIC-166">
          <mxGeometry x="44.320000000000164" y="221" width="139" height="110" as="geometry" />
        </mxCell>
        <mxCell id="QuTmqwlnSlKRY2pRDbIC-177" style="edgeStyle=orthogonalEdgeStyle;rounded=0;orthogonalLoop=1;jettySize=auto;html=1;entryX=0.471;entryY=0.932;entryDx=0;entryDy=0;entryPerimeter=0;fillColor=#f8cecc;strokeColor=#ff0800;flowAnimation=1;" edge="1" parent="QuTmqwlnSlKRY2pRDbIC-166" source="QuTmqwlnSlKRY2pRDbIC-176" target="QuTmqwlnSlKRY2pRDbIC-168">
          <mxGeometry relative="1" as="geometry" />
        </mxCell>
        <mxCell id="QuTmqwlnSlKRY2pRDbIC-178" value="&lt;font style=&quot;font-size: 18px;&quot;&gt;Sim&lt;/font&gt;" style="edgeLabel;html=1;align=center;verticalAlign=middle;resizable=0;points=[];" vertex="1" connectable="0" parent="QuTmqwlnSlKRY2pRDbIC-177">
          <mxGeometry x="0.0512" y="-1" relative="1" as="geometry">
            <mxPoint as="offset" />
          </mxGeometry>
        </mxCell>
        <mxCell id="QuTmqwlnSlKRY2pRDbIC-179" style="edgeStyle=orthogonalEdgeStyle;rounded=0;orthogonalLoop=1;jettySize=auto;html=1;fillColor=#647687;strokeColor=#314354;flowAnimation=1;entryX=0;entryY=0.5;entryDx=0;entryDy=0;entryPerimeter=0;exitX=0.962;exitY=0.756;exitDx=0;exitDy=0;exitPerimeter=0;" edge="1" parent="QuTmqwlnSlKRY2pRDbIC-166" source="QuTmqwlnSlKRY2pRDbIC-170">
          <mxGeometry relative="1" as="geometry">
            <mxPoint x="315.27" y="528.53" as="targetPoint" />
            <mxPoint x="190.00000000000003" y="610.53" as="sourcePoint" />
          </mxGeometry>
        </mxCell>
        <mxCell id="QuTmqwlnSlKRY2pRDbIC-180" value="&lt;span style=&quot;font-size: 18px;&quot;&gt;EvidÃªncias&lt;/span&gt;" style="edgeLabel;html=1;align=center;verticalAlign=middle;resizable=0;points=[];" vertex="1" connectable="0" parent="QuTmqwlnSlKRY2pRDbIC-179">
          <mxGeometry x="0.3197" y="-1" relative="1" as="geometry">
            <mxPoint as="offset" />
          </mxGeometry>
        </mxCell>
        <mxCell id="QuTmqwlnSlKRY2pRDbIC-181" value="Log" style="html=1;whiteSpace=wrap;strokeColor=none;fillColor=#0079D6;labelPosition=center;verticalLabelPosition=middle;verticalAlign=top;align=center;fontSize=12;outlineConnect=0;spacingTop=-6;fontColor=#FFFFFF;sketch=0;shape=mxgraph.sitemap.log;" vertex="1" parent="QuTmqwlnSlKRY2pRDbIC-166">
          <mxGeometry x="270" y="462" width="80" height="60" as="geometry" />
        </mxCell>
        <mxCell id="QuTmqwlnSlKRY2pRDbIC-190" value="" style="shape=image;html=1;verticalAlign=top;verticalLabelPosition=bottom;labelBackgroundColor=#ffffff;imageAspect=0;aspect=fixed;image=https://cdn2.iconfinder.com/data/icons/crystalproject/128x128/apps/bug.png" vertex="1" parent="QuTmqwlnSlKRY2pRDbIC-166">
          <mxGeometry x="80.81999999999994" y="70" width="70" height="70" as="geometry" />
        </mxCell>
        <mxCell id="QuTmqwlnSlKRY2pRDbIC-191" style="edgeStyle=orthogonalEdgeStyle;rounded=0;orthogonalLoop=1;jettySize=auto;html=1;fillColor=#f8cecc;strokeColor=#ff0800;flowAnimation=1;" edge="1" parent="QuTmqwlnSlKRY2pRDbIC-166">
          <mxGeometry relative="1" as="geometry">
            <mxPoint x="-631" y="380" as="targetPoint" />
            <mxPoint x="616" y="676.9999999999998" as="sourcePoint" />
            <Array as="points">
              <mxPoint x="616" y="680" />
              <mxPoint x="-631" y="680" />
            </Array>
          </mxGeometry>
        </mxCell>
        <mxCell id="QuTmqwlnSlKRY2pRDbIC-192" style="edgeStyle=orthogonalEdgeStyle;rounded=0;orthogonalLoop=1;jettySize=auto;html=1;fillColor=#60a917;strokeColor=#2D7600;flowAnimation=1;" edge="1" parent="QuTmqwlnSlKRY2pRDbIC-115" source="QuTmqwlnSlKRY2pRDbIC-161">
          <mxGeometry relative="1" as="geometry">
            <mxPoint x="1820" y="630" as="targetPoint" />
            <Array as="points">
              <mxPoint x="1760" y="347" />
              <mxPoint x="1760" y="630" />
            </Array>
          </mxGeometry>
        </mxCell>
        <mxCell id="QuTmqwlnSlKRY2pRDbIC-193" value="&lt;font style=&quot;font-size: 18px;&quot;&gt;Sim&lt;/font&gt;" style="edgeLabel;html=1;align=center;verticalAlign=middle;resizable=0;points=[];" vertex="1" connectable="0" parent="QuTmqwlnSlKRY2pRDbIC-192">
          <mxGeometry x="-0.775" y="1" relative="1" as="geometry">
            <mxPoint as="offset" />
          </mxGeometry>
        </mxCell>
        <mxCell id="QuTmqwlnSlKRY2pRDbIC-194" style="edgeStyle=orthogonalEdgeStyle;rounded=0;orthogonalLoop=1;jettySize=auto;html=1;fillColor=#f8cecc;strokeColor=#ff0800;flowAnimation=1;" edge="1" parent="QuTmqwlnSlKRY2pRDbIC-115" source="QuTmqwlnSlKRY2pRDbIC-176" target="QuTmqwlnSlKRY2pRDbIC-121">
          <mxGeometry relative="1" as="geometry">
            <Array as="points">
              <mxPoint x="1960" y="296" />
              <mxPoint x="1960" y="700" />
              <mxPoint x="104" y="700" />
            </Array>
          </mxGeometry>
        </mxCell>
        <mxCell id="QuTmqwlnSlKRY2pRDbIC-241" value="&lt;font style=&quot;font-size: 18px;&quot;&gt;NÃ£o&lt;/font&gt;" style="edgeLabel;html=1;align=center;verticalAlign=middle;resizable=0;points=[];" vertex="1" connectable="0" parent="QuTmqwlnSlKRY2pRDbIC-194">
          <mxGeometry x="-0.9005" y="2" relative="1" as="geometry">
            <mxPoint as="offset" />
          </mxGeometry>
        </mxCell>
        <mxCell id="QuTmqwlnSlKRY2pRDbIC-195" value="&lt;font style=&quot;font-size: 14px;&quot;&gt;ProduÃ§Ã£o&lt;/font&gt;" style="swimlane;html=1;startSize=20;fillColor=#EA6B66;strokeColor=#b85450;" vertex="1" parent="QuTmqwlnSlKRY2pRDbIC-115">
          <mxGeometry x="2245" y="20" width="730" height="765" as="geometry" />
        </mxCell>
        <mxCell id="QuTmqwlnSlKRY2pRDbIC-196" style="edgeStyle=orthogonalEdgeStyle;rounded=0;orthogonalLoop=1;jettySize=auto;html=1;fillColor=#60a917;strokeColor=#2D7600;flowAnimation=1;" edge="1" parent="QuTmqwlnSlKRY2pRDbIC-195" source="QuTmqwlnSlKRY2pRDbIC-197">
          <mxGeometry relative="1" as="geometry">
            <mxPoint x="273" y="473.3333333333335" as="targetPoint" />
          </mxGeometry>
        </mxCell>
        <mxCell id="QuTmqwlnSlKRY2pRDbIC-197" value="" style="verticalLabelPosition=bottom;html=1;verticalAlign=top;align=center;strokeColor=none;fillColor=#00BEF2;shape=mxgraph.azure.cloud_service_package_file;" vertex="1" parent="QuTmqwlnSlKRY2pRDbIC-195">
          <mxGeometry x="65" y="406.5" width="61" height="65" as="geometry" />
        </mxCell>
        <mxCell id="QuTmqwlnSlKRY2pRDbIC-198" value="&lt;font style=&quot;font-size: 18px;&quot;&gt;Build em ProduÃ§Ã£o&lt;/font&gt;" style="text;html=1;align=center;verticalAlign=middle;resizable=0;points=[];autosize=1;strokeColor=none;fillColor=none;" vertex="1" parent="QuTmqwlnSlKRY2pRDbIC-195">
          <mxGeometry x="15" y="474" width="170" height="34" as="geometry" />
        </mxCell>
        <mxCell id="QuTmqwlnSlKRY2pRDbIC-199" style="edgeStyle=orthogonalEdgeStyle;rounded=0;orthogonalLoop=1;jettySize=auto;html=1;fillColor=#60a917;strokeColor=#2D7600;flowAnimation=1;" edge="1" parent="QuTmqwlnSlKRY2pRDbIC-195" source="QuTmqwlnSlKRY2pRDbIC-200">
          <mxGeometry relative="1" as="geometry">
            <mxPoint x="399.66666666666697" y="517" as="targetPoint" />
          </mxGeometry>
        </mxCell>
        <mxCell id="QuTmqwlnSlKRY2pRDbIC-200" value="" style="image;aspect=fixed;html=1;points=[];align=center;fontSize=12;image=img/lib/azure2/general/Load_Test.svg;" vertex="1" parent="QuTmqwlnSlKRY2pRDbIC-195">
          <mxGeometry x="243" y="487" width="61.82" height="60" as="geometry" />
        </mxCell>
        <mxCell id="QuTmqwlnSlKRY2pRDbIC-201" value="&lt;span style=&quot;font-size: 18px;&quot;&gt;Smoke Testes&lt;/span&gt;" style="edgeLabel;html=1;align=center;verticalAlign=middle;resizable=0;points=[];" vertex="1" connectable="0" parent="QuTmqwlnSlKRY2pRDbIC-195">
          <mxGeometry x="275.9119189684211" y="567.0018295892222" as="geometry" />
        </mxCell>
        <mxCell id="QuTmqwlnSlKRY2pRDbIC-202" style="edgeStyle=orthogonalEdgeStyle;rounded=0;orthogonalLoop=1;jettySize=auto;html=1;entryX=1;entryY=0.5;entryDx=0;entryDy=0;fillColor=#f8cecc;strokeColor=#fa0800;flowAnimation=1;" edge="1" parent="QuTmqwlnSlKRY2pRDbIC-195">
          <mxGeometry relative="1" as="geometry">
            <mxPoint x="481" y="572" as="sourcePoint" />
            <mxPoint x="172.99999999999955" y="679" as="targetPoint" />
            <Array as="points">
              <mxPoint x="480" y="679" />
            </Array>
          </mxGeometry>
        </mxCell>
        <mxCell id="QuTmqwlnSlKRY2pRDbIC-228" value="&lt;font style=&quot;font-size: 18px;&quot;&gt;Sim&lt;/font&gt;" style="edgeLabel;html=1;align=center;verticalAlign=middle;resizable=0;points=[];" vertex="1" connectable="0" parent="QuTmqwlnSlKRY2pRDbIC-202">
          <mxGeometry x="0.2416" y="-2" relative="1" as="geometry">
            <mxPoint as="offset" />
          </mxGeometry>
        </mxCell>
        <mxCell id="QuTmqwlnSlKRY2pRDbIC-204" style="edgeStyle=orthogonalEdgeStyle;rounded=0;orthogonalLoop=1;jettySize=auto;html=1;fillColor=#647687;strokeColor=#314354;flowAnimation=1;" edge="1" parent="QuTmqwlnSlKRY2pRDbIC-195" source="QuTmqwlnSlKRY2pRDbIC-208" target="QuTmqwlnSlKRY2pRDbIC-211">
          <mxGeometry relative="1" as="geometry">
            <mxPoint x="361" y="407.79999999999995" as="targetPoint" />
            <Array as="points">
              <mxPoint x="480" y="449" />
              <mxPoint x="653" y="449" />
            </Array>
          </mxGeometry>
        </mxCell>
        <mxCell id="QuTmqwlnSlKRY2pRDbIC-206" style="edgeStyle=orthogonalEdgeStyle;rounded=0;orthogonalLoop=1;jettySize=auto;html=1;fillColor=#60a917;strokeColor=#2D7600;flowAnimation=1;" edge="1" parent="QuTmqwlnSlKRY2pRDbIC-195" source="QuTmqwlnSlKRY2pRDbIC-208" target="QuTmqwlnSlKRY2pRDbIC-215">
          <mxGeometry relative="1" as="geometry">
            <mxPoint x="362" y="209" as="targetPoint" />
            <Array as="points">
              <mxPoint x="480" y="291" />
            </Array>
          </mxGeometry>
        </mxCell>
        <mxCell id="QuTmqwlnSlKRY2pRDbIC-207" value="&lt;font style=&quot;font-size: 18px;&quot;&gt;NÃ£o&lt;/font&gt;" style="edgeLabel;html=1;align=center;verticalAlign=middle;resizable=0;points=[];" vertex="1" connectable="0" parent="QuTmqwlnSlKRY2pRDbIC-206">
          <mxGeometry x="-0.5543" y="2" relative="1" as="geometry">
            <mxPoint as="offset" />
          </mxGeometry>
        </mxCell>
        <mxCell id="QuTmqwlnSlKRY2pRDbIC-208" value="&lt;span style=&quot;font-size: 18px;&quot;&gt;Gerou Bugs?&lt;/span&gt;" style="rhombus;whiteSpace=wrap;html=1;fillColor=#fad7ac;strokeColor=#b46504;" vertex="1" parent="QuTmqwlnSlKRY2pRDbIC-195">
          <mxGeometry x="410" y="460" width="139" height="110" as="geometry" />
        </mxCell>
        <mxCell id="QuTmqwlnSlKRY2pRDbIC-209" value="&lt;span style=&quot;font-size: 18px;&quot;&gt;BUG&lt;/span&gt;" style="text;html=1;align=center;verticalAlign=middle;resizable=0;points=[];autosize=1;strokeColor=none;fillColor=none;" vertex="1" parent="QuTmqwlnSlKRY2pRDbIC-195">
          <mxGeometry x="109.99999999999955" y="690" width="57" height="34" as="geometry" />
        </mxCell>
        <mxCell id="QuTmqwlnSlKRY2pRDbIC-210" value="" style="shape=image;html=1;verticalAlign=top;verticalLabelPosition=bottom;labelBackgroundColor=#ffffff;imageAspect=0;aspect=fixed;image=https://cdn2.iconfinder.com/data/icons/crystalproject/128x128/apps/bug.png" vertex="1" parent="QuTmqwlnSlKRY2pRDbIC-195">
          <mxGeometry x="103" y="627" width="70" height="70" as="geometry" />
        </mxCell>
        <mxCell id="QuTmqwlnSlKRY2pRDbIC-211" value="Log" style="html=1;whiteSpace=wrap;strokeColor=none;fillColor=#0079D6;labelPosition=center;verticalLabelPosition=middle;verticalAlign=top;align=center;fontSize=12;outlineConnect=0;spacingTop=-6;fontColor=#FFFFFF;sketch=0;shape=mxgraph.sitemap.log;" vertex="1" parent="QuTmqwlnSlKRY2pRDbIC-195">
          <mxGeometry x="612" y="485" width="80" height="60" as="geometry" />
        </mxCell>
        <mxCell id="QuTmqwlnSlKRY2pRDbIC-212" value="&lt;font style=&quot;font-size: 18px;&quot;&gt;EvidÃªncias&lt;/font&gt;" style="edgeLabel;html=1;align=center;verticalAlign=middle;resizable=0;points=[];" vertex="1" connectable="0" parent="QuTmqwlnSlKRY2pRDbIC-195">
          <mxGeometry x="43.000604769635174" y="788.9996726359642" as="geometry">
            <mxPoint x="606" y="-222" as="offset" />
          </mxGeometry>
        </mxCell>
        <mxCell id="QuTmqwlnSlKRY2pRDbIC-252" style="edgeStyle=orthogonalEdgeStyle;rounded=0;orthogonalLoop=1;jettySize=auto;html=1;entryX=0;entryY=0.5;entryDx=0;entryDy=0;fillColor=#60a917;strokeColor=#2D7600;flowAnimation=1;" edge="1" parent="QuTmqwlnSlKRY2pRDbIC-195" source="QuTmqwlnSlKRY2pRDbIC-214" target="QuTmqwlnSlKRY2pRDbIC-220">
          <mxGeometry relative="1" as="geometry">
            <Array as="points">
              <mxPoint x="116" y="158" />
              <mxPoint x="332" y="158" />
            </Array>
          </mxGeometry>
        </mxCell>
        <mxCell id="QuTmqwlnSlKRY2pRDbIC-214" value="" style="image;aspect=fixed;html=1;points=[];align=center;fontSize=12;image=img/lib/azure2/management_governance/Metrics.svg;" vertex="1" parent="QuTmqwlnSlKRY2pRDbIC-195">
          <mxGeometry x="89.64999999999998" y="224" width="52.71" height="56" as="geometry" />
        </mxCell>
        <mxCell id="QuTmqwlnSlKRY2pRDbIC-215" value="&lt;font style=&quot;font-size: 18px;&quot;&gt;Monitoramento&lt;/font&gt;" style="text;html=1;align=center;verticalAlign=middle;resizable=0;points=[];autosize=1;strokeColor=none;fillColor=none;" vertex="1" parent="QuTmqwlnSlKRY2pRDbIC-195">
          <mxGeometry x="47" y="274" width="138" height="34" as="geometry" />
        </mxCell>
        <mxCell id="QuTmqwlnSlKRY2pRDbIC-216" style="edgeStyle=orthogonalEdgeStyle;rounded=0;orthogonalLoop=1;jettySize=auto;html=1;fillColor=#60a917;strokeColor=#2D7600;flowAnimation=1;" edge="1" parent="QuTmqwlnSlKRY2pRDbIC-195" source="QuTmqwlnSlKRY2pRDbIC-220" target="QuTmqwlnSlKRY2pRDbIC-221">
          <mxGeometry relative="1" as="geometry" />
        </mxCell>
        <mxCell id="QuTmqwlnSlKRY2pRDbIC-217" value="&lt;font style=&quot;font-size: 18px;&quot;&gt;NÃ£o&lt;/font&gt;" style="edgeLabel;html=1;align=center;verticalAlign=middle;resizable=0;points=[];" vertex="1" connectable="0" parent="QuTmqwlnSlKRY2pRDbIC-216">
          <mxGeometry x="-0.1221" y="2" relative="1" as="geometry">
            <mxPoint y="-1" as="offset" />
          </mxGeometry>
        </mxCell>
        <mxCell id="QuTmqwlnSlKRY2pRDbIC-220" value="&lt;span style=&quot;font-size: 18px;&quot;&gt;Identificou&lt;/span&gt;&lt;div&gt;&lt;span style=&quot;font-size: 18px;&quot;&gt;BUG?&lt;/span&gt;&lt;/div&gt;" style="rhombus;whiteSpace=wrap;html=1;fillColor=#fad7ac;strokeColor=#b46504;" vertex="1" parent="QuTmqwlnSlKRY2pRDbIC-195">
          <mxGeometry x="522" y="102.5" width="139" height="110" as="geometry" />
        </mxCell>
        <mxCell id="QuTmqwlnSlKRY2pRDbIC-221" value="" style="sketch=0;html=1;aspect=fixed;strokeColor=none;shadow=0;align=center;fillColor=#2D9C5E;verticalAlign=top;labelPosition=center;verticalLabelPosition=bottom;shape=mxgraph.gcp2.check" vertex="1" parent="QuTmqwlnSlKRY2pRDbIC-195">
          <mxGeometry x="561.5" y="290.5" width="60" height="48" as="geometry" />
        </mxCell>
        <mxCell id="QuTmqwlnSlKRY2pRDbIC-222" value="&lt;span style=&quot;font-size: 18px;&quot;&gt;BUG&lt;/span&gt;" style="text;html=1;align=center;verticalAlign=middle;resizable=0;points=[];autosize=1;strokeColor=none;fillColor=none;" vertex="1" parent="QuTmqwlnSlKRY2pRDbIC-195">
          <mxGeometry x="224.99999999999955" y="84" width="57" height="34" as="geometry" />
        </mxCell>
        <mxCell id="QuTmqwlnSlKRY2pRDbIC-223" style="edgeStyle=orthogonalEdgeStyle;rounded=0;orthogonalLoop=1;jettySize=auto;html=1;fillColor=#f8cecc;gradientColor=#ea6b66;strokeColor=#ff0800;flowAnimation=1;" edge="1" parent="QuTmqwlnSlKRY2pRDbIC-195">
          <mxGeometry relative="1" as="geometry">
            <mxPoint x="-1145" y="248" as="targetPoint" />
            <mxPoint x="215" y="51" as="sourcePoint" />
            <Array as="points">
              <mxPoint x="214" y="51" />
              <mxPoint x="199" y="51" />
              <mxPoint x="-1146" y="50" />
              <mxPoint x="-1146" y="246" />
              <mxPoint x="-1145" y="246" />
            </Array>
          </mxGeometry>
        </mxCell>
        <mxCell id="QuTmqwlnSlKRY2pRDbIC-224" value="" style="shape=image;html=1;verticalAlign=top;verticalLabelPosition=bottom;labelBackgroundColor=#ffffff;imageAspect=0;aspect=fixed;image=https://cdn2.iconfinder.com/data/icons/crystalproject/128x128/apps/bug.png" vertex="1" parent="QuTmqwlnSlKRY2pRDbIC-195">
          <mxGeometry x="218" y="21" width="70" height="70" as="geometry" />
        </mxCell>
        <mxCell id="QuTmqwlnSlKRY2pRDbIC-245" style="edgeStyle=orthogonalEdgeStyle;rounded=0;orthogonalLoop=1;jettySize=auto;html=1;entryX=0.987;entryY=0.328;entryDx=0;entryDy=0;entryPerimeter=0;fillColor=#f8cecc;strokeColor=#b85450;flowAnimation=1;" edge="1" parent="QuTmqwlnSlKRY2pRDbIC-195" source="QuTmqwlnSlKRY2pRDbIC-220" target="QuTmqwlnSlKRY2pRDbIC-224">
          <mxGeometry relative="1" as="geometry">
            <Array as="points">
              <mxPoint x="591" y="44" />
            </Array>
          </mxGeometry>
        </mxCell>
        <mxCell id="QuTmqwlnSlKRY2pRDbIC-246" value="&lt;font style=&quot;font-size: 18px;&quot;&gt;Sim&lt;/font&gt;" style="edgeLabel;html=1;align=center;verticalAlign=middle;resizable=0;points=[];" vertex="1" connectable="0" parent="QuTmqwlnSlKRY2pRDbIC-245">
          <mxGeometry x="0.1909" relative="1" as="geometry">
            <mxPoint as="offset" />
          </mxGeometry>
        </mxCell>
        <mxCell id="QuTmqwlnSlKRY2pRDbIC-248" style="edgeStyle=orthogonalEdgeStyle;rounded=0;orthogonalLoop=1;jettySize=auto;html=1;entryX=0.006;entryY=0.562;entryDx=0;entryDy=0;entryPerimeter=0;fillColor=#60a917;strokeColor=#2D7600;flowAnimation=1;" edge="1" parent="QuTmqwlnSlKRY2pRDbIC-115" source="QuTmqwlnSlKRY2pRDbIC-175" target="QuTmqwlnSlKRY2pRDbIC-197">
          <mxGeometry relative="1" as="geometry">
            <mxPoint x="2298.1305974324546" y="462.0000000000002" as="targetPoint" />
          </mxGeometry>
        </mxCell>
        <mxCell id="QuTmqwlnSlKRY2pRDbIC-249" value="&lt;font style=&quot;font-size: 18px;&quot;&gt;NÃ£o&lt;/font&gt;" style="edgeLabel;html=1;align=center;verticalAlign=middle;resizable=0;points=[];" vertex="1" connectable="0" parent="QuTmqwlnSlKRY2pRDbIC-248">
          <mxGeometry x="-0.6194" relative="1" as="geometry">
            <mxPoint as="offset" />
          </mxGeometry>
        </mxCell>
        <mxCell id="QuTmqwlnSlKRY2pRDbIC-227" value="" style="shape=image;html=1;verticalAlign=top;verticalLabelPosition=bottom;labelBackgroundColor=#ffffff;imageAspect=0;aspect=fixed;image=https://cdn2.iconfinder.com/data/icons/crystalproject/128x128/apps/bug.png" vertex="1" parent="1">
          <mxGeometry x="1607.9099999999999" y="980" width="70" height="70" as="geometry" />
        </mxCell>
      </root>
    </mxGraphModel>
  </diagram>
</mxfile>
